<?xml version="1.0" encoding="UTF-8" standalone="no"?>
<!DOCTYPE svg PUBLIC "-//W3C//DTD SVG 1.1//EN" "http://www.w3.org/Graphics/SVG/1.1/DTD/svg11.dtd">
<svg xmlns="http://www.w3.org/2000/svg" version="1.1" viewBox="0 0 1448 1448">
<g stroke-width="2.00" fill="none" stroke-linecap="butt">
<path stroke="#ebf8ff" vector-effect="non-scaling-stroke" d="
  M 544.27 235.28
  A 1.65 1.65 0.0 0 0 545.70 237.75
  L 641.12 237.75
  A 1.65 1.65 0.0 0 0 642.55 235.28
  L 594.84 152.71
  A 1.65 1.65 0.0 0 0 591.98 152.71
  L 544.27 235.28"
/>
<path stroke="#c0c2ff" vector-effect="non-scaling-stroke" d="
  M 810.79 231.25
  C 802.53 195.82 765.95 175.24 731.44 188.35
  C 711.90 195.77 697.31 213.24 693.90 233.79
  Q 692.85 240.10 693.41 253.73
  Q 694.25 274.37 695.18 295.02"
/>
<path stroke="#ebf8ff" vector-effect="non-scaling-stroke" d="
  M 695.18 295.02
  Q 692.84 294.29 691.94 294.46
  C 644.01 303.70 595.31 307.95 547.32 298.91
  C 536.94 296.96 520.88 292.38 509.80 290.87
  C 457.79 283.80 399.94 308.67 379.53 359.32
  Q 369.76 383.58 374.66 410.63
  Q 379.23 435.85 387.65 460.08
  C 395.80 483.55 405.29 506.95 411.93 530.87
  C 413.22 535.50 411.87 543.34 414.54 546.67
  Q 414.85 547.05 414.81 547.54
  Q 414.76 548.10 414.50 548.54"
/>
<path stroke="#ffdad0" vector-effect="non-scaling-stroke" d="
  M 414.50 548.54
  Q 408.70 543.18 402.20 540.77
  Q 380.14 532.63 344.88 520.69
  C 340.33 519.15 334.93 517.03 331.30 513.84
  C 327.56 510.56 322.81 504.59 317.25 505.79"
/>
<path stroke="#80a3d2" vector-effect="non-scaling-stroke" d="
  M 317.25 505.79
  C 307.43 500.47 296.10 499.72 285.24 501.60
  Q 269.49 504.33 267.35 520.21
  C 266.06 529.79 269.10 543.08 274.29 551.25"
/>
<path stroke="#ffdad0" vector-effect="non-scaling-stroke" d="
  M 274.29 551.25
  Q 275.81 559.57 273.04 567.74
  Q 272.83 568.35 273.40 568.65
  Q 282.94 573.65 292.85 578.35
  C 294.73 579.24 295.27 578.83 296.29 577.30
  Q 298.81 573.53 301.14 569.66
  C 302.04 568.18 300.45 564.96 300.15 563.25
  Q 300.06 562.75 300.55 562.61
  C 312.02 559.31 315.55 540.86 316.41 530.24
  Q 316.44 529.83 316.86 529.80
  L 324.77 529.31
  Q 325.31 529.28 325.79 529.52
  C 328.78 531.00 331.68 533.18 334.48 534.42
  C 350.19 541.44 366.58 547.91 381.40 556.70
  A 0.56 0.56 0.0 0 1 381.29 557.71
  C 373.96 560.24 366.14 561.74 359.25 565.04"
/>
<path stroke="#80a3d2" vector-effect="non-scaling-stroke" d="
  M 359.25 565.04
  Q 358.84 563.62 357.83 562.71
  Q 357.42 562.33 356.88 562.49
  Q 334.67 568.86 312.53 575.21
  C 311.78 575.42 311.52 575.78 311.25 576.46"
/>
<path stroke="#9dd4ff" vector-effect="non-scaling-stroke" d="
  M 311.25 576.46
  L 304.66 588.22
  Q 304.32 588.83 303.81 588.34
  L 295.75 580.40
  A 0.64 0.64 0.0 0 0 294.71 580.62
  L 290.74 590.87
  A 0.71 0.70 26.9 0 1 289.70 591.21
  L 264.76 575.13
  Q 264.31 574.84 263.77 574.89
  C 256.95 575.51 242.83 577.49 237.74 582.17"
/>
<path stroke="#80a3d2" vector-effect="non-scaling-stroke" d="
  M 237.74 582.17
  Q 227.72 586.71 226.56 599.28
  C 225.07 615.43 229.55 632.00 235.17 647.18
  C 235.57 648.26 235.71 649.60 235.96 650.75"
/>
<path stroke="#9dd4ff" vector-effect="non-scaling-stroke" d="
  M 235.96 650.75
  Q 235.64 652.77 235.94 657.06
  Q 237.44 678.53 237.04 706.25"
/>
<path stroke="#aae5ff" vector-effect="non-scaling-stroke" d="
  M 237.04 706.25
  C 235.78 728.22 231.74 750.17 231.13 771.94
  Q 231.07 774.33 232.49 774.70"
/>
<path stroke="#80a3d2" vector-effect="non-scaling-stroke" d="
  M 232.49 774.70
  Q 230.15 801.10 230.27 821.00
  Q 230.67 885.95 232.57 1067.69
  Q 232.57 1068.29 233.17 1068.38
  L 236.00 1068.79"
/>
<path stroke="#ffdad0" vector-effect="non-scaling-stroke" d="
  M 236.00 1068.79
  L 235.75 1080.46"
/>
<path stroke="#80a3d2" vector-effect="non-scaling-stroke" d="
  M 235.75 1080.46
  L 233.71 1089.25"
/>
<path stroke="#ebf8ff" vector-effect="non-scaling-stroke" d="
  M 233.71 1089.25
  C 212.08 1089.24 189.63 1092.10 168.25 1095.23
  C 159.76 1096.48 141.25 1098.99 135.50 1105.63
  A 1.97 1.97 0.0 0 0 135.75 1108.46
  C 144.05 1115.12 158.00 1117.23 168.26 1118.67
  C 221.50 1126.18 274.61 1126.90 328.25 1126.14
  C 349.01 1125.84 454.00 1122.78 461.54 1107.43
  Q 461.78 1106.95 461.54 1106.47
  C 457.86 1099.22 435.94 1096.22 428.42 1095.18
  Q 388.81 1089.69 348.79 1088.34
  C 346.74 1088.27 344.85 1086.82 343.00 1089.29"
/>
<path stroke="#80a3d2" vector-effect="non-scaling-stroke" d="
  M 343.00 1089.29
  Q 337.62 1084.15 333.64 1077.88
  C 333.27 1077.30 333.03 1077.30 332.46 1077.00"
/>
<path stroke="#ffdad0" vector-effect="non-scaling-stroke" d="
  M 332.46 1077.00
  Q 333.57 1072.36 331.75 1068.04"
/>
<path stroke="#80a3d2" vector-effect="non-scaling-stroke" d="
  M 331.75 1068.04
  L 336.58 1067.39
  Q 337.16 1067.31 337.25 1066.74
  Q 338.91 1056.71 339.66 1048.43
  Q 347.84 957.02 350.62 862.94
  C 351.58 830.16 352.53 796.13 348.14 763.56"
/>
<path stroke="#aae5ff" vector-effect="non-scaling-stroke" d="
  M 348.14 763.56
  C 348.45 761.85 348.73 759.95 348.22 758.16
  C 342.29 737.37 341.38 719.51 339.44 699.35"
/>
<path stroke="#9dd4ff" vector-effect="non-scaling-stroke" d="
  M 339.44 699.35
  L 338.07 682.79"
/>
<path stroke="#ffdad0" vector-effect="non-scaling-stroke" d="
  M 338.07 682.79
  L 366.06 666.31"
/>
<path stroke="#80a3d2" vector-effect="non-scaling-stroke" d="
  M 366.06 666.31
  L 365.36 669.48
  Q 365.21 670.13 365.87 670.15
  L 381.79 670.60"
/>
<path stroke="#ebf8ff" vector-effect="non-scaling-stroke" d="
  M 381.79 670.60
  C 369.99 712.26 361.37 752.03 391.68 788.86
  Q 427.04 831.81 482.08 845.90
  Q 485.94 846.89 491.32 846.24"
/>
<path stroke="#c9bfff" vector-effect="non-scaling-stroke" d="
  M 491.32 846.24
  Q 481.09 863.73 471.06 881.28
  C 469.94 883.23 471.20 884.94 473.38 884.94
  Q 536.72 885.06 600.07 884.97
  C 600.93 884.97 601.88 884.64 602.95 884.76
  Q 603.47 884.82 603.86 884.47
  Q 605.49 883.01 604.31 880.97
  Q 594.25 863.66 584.06 845.85"
/>
<path stroke="#ebf8ff" vector-effect="non-scaling-stroke" d="
  M 584.06 845.85
  Q 615.57 834.98 638.19 819.44
  Q 665.72 800.53 693.64 782.11"
/>
<path stroke="#c9bfff" vector-effect="non-scaling-stroke" d="
  M 693.64 782.11
  Q 703.93 807.31 727.37 817.62
  C 762.53 833.09 803.21 813.31 813.22 776.50
  Q 817.86 759.44 812.76 742.01"
/>
<path stroke="#ebf8ff" vector-effect="non-scaling-stroke" d="
  M 812.76 742.01
  Q 848.01 739.66 883.19 742.78
  C 909.62 745.13 935.96 748.21 962.43 750.20
  Q 971.58 750.90 987.74 753.02
  C 1051.02 761.33 1148.92 752.27 1184.86 689.55
  C 1195.28 671.37 1202.33 645.83 1197.05 624.73
  C 1187.85 587.96 1160.66 560.36 1143.77 525.45
  C 1121.31 479.00 1110.58 429.44 1109.66 377.94
  C 1109.07 345.39 1109.46 312.87 1105.52 280.50
  C 1100.34 237.87 1070.24 198.37 1026.56 187.93
  C 983.21 177.58 939.47 184.97 896.19 195.19
  C 865.99 202.32 840.08 214.77 813.25 230.62
  C 812.50 231.06 811.62 231.17 810.79 231.25"
/>
<path stroke="#b4b7ff" vector-effect="non-scaling-stroke" d="
  M 812.76 742.01
  Q 801.35 709.46 770.47 700.02
  C 743.08 691.66 713.32 703.50 698.83 727.95
  Q 684.06 752.84 693.64 782.11"
/>
<path stroke="#b4b7ff" vector-effect="non-scaling-stroke" d="
  M 584.06 845.85
  L 539.83 769.42
  A 2.99 1.98 -17.1 0 0 536.93 768.57
  C 535.00 768.97 495.71 838.70 491.32 846.24"
/>
<path stroke="#6b9cd2" vector-effect="non-scaling-stroke" d="
  M 381.79 670.60
  C 383.88 670.59 396.61 671.44 397.36 669.82
  Q 410.35 641.64 423.41 613.30
  Q 423.67 612.74 423.05 612.75
  L 400.93 612.95"
/>
<path stroke="#ebf8ff" vector-effect="non-scaling-stroke" d="
  M 400.93 612.95
  Q 403.14 603.76 405.51 594.71
  Q 405.52 594.67 407.92 587.01
  Q 409.57 581.75 409.90 576.23"
/>
<path stroke="#ead3d0" vector-effect="non-scaling-stroke" d="
  M 409.90 576.23
  C 412.68 573.54 415.74 570.84 417.24 567.34
  Q 421.47 557.54 414.50 548.54"
/>
<path stroke="#abbbff" vector-effect="non-scaling-stroke" d="
  M 695.18 295.02
  L 697.23 341.99"
/>
<path stroke="#88cdff" vector-effect="non-scaling-stroke" d="
  M 697.23 341.99
  L 683.75 343.79"
/>
<path stroke="#95ddff" vector-effect="non-scaling-stroke" d="
  M 683.75 343.79
  C 632.39 351.66 585.08 364.17 538.00 386.04"
/>
<path stroke="#88cdff" vector-effect="non-scaling-stroke" d="
  M 538.00 386.04
  L 506.25 401.79"
/>
<path stroke="#95ddff" vector-effect="non-scaling-stroke" d="
  M 506.25 401.79
  C 481.07 415.28 458.54 430.86 435.63 447.80
  C 424.66 455.91 422.18 470.39 430.69 481.03
  C 436.33 488.09 446.34 491.58 454.91 488.91
  Q 458.66 487.75 465.79 482.35
  C 530.77 433.23 603.58 401.64 684.75 390.21"
/>
<path stroke="#88cdff" vector-effect="non-scaling-stroke" d="
  M 684.75 390.21
  L 698.96 388.25"
/>
<path stroke="#b4b7ff" vector-effect="non-scaling-stroke" d="
  M 698.96 388.25
  Q 699.41 389.16 699.44 389.56
  Q 701.55 425.51 702.71 461.50"
/>
<path stroke="#88cdff" vector-effect="non-scaling-stroke" d="
  M 702.71 461.50
  Q 695.40 461.91 688.25 463.54"
/>
<path stroke="#95ddff" vector-effect="non-scaling-stroke" d="
  M 688.25 463.54
  Q 669.27 467.19 662.50 468.77
  Q 580.27 487.93 513.09 538.43
  C 504.10 545.18 496.12 551.15 497.19 563.85
  C 498.45 578.87 513.58 588.67 527.73 583.47
  Q 531.42 582.11 538.08 576.98
  Q 605.81 524.84 690.50 509.79"
/>
<path stroke="#88cdff" vector-effect="non-scaling-stroke" d="
  M 690.50 509.79
  C 694.05 509.31 701.87 509.02 704.75 507.46"
/>
<path stroke="#b4b7ff" vector-effect="non-scaling-stroke" d="
  M 704.75 507.46
  Q 705.13 509.61 705.33 513.94
  Q 706.91 548.47 708.52 583.00
  Q 708.65 585.75 708.46 588.50"
/>
<path stroke="#88cdff" vector-effect="non-scaling-stroke" d="
  M 708.46 588.50
  Q 701.08 589.31 694.00 591.54"
/>
<path stroke="#95ddff" vector-effect="non-scaling-stroke" d="
  M 694.00 591.54
  Q 641.20 603.51 596.78 634.31
  C 585.09 642.41 570.85 650.91 573.31 666.74
  C 575.54 681.18 590.06 690.09 603.67 685.00
  Q 607.05 683.73 613.14 678.99
  Q 650.63 649.75 697.07 637.79"
/>
<path stroke="#88cdff" vector-effect="non-scaling-stroke" d="
  M 697.07 637.79
  L 712.25 634.21"
/>
<path stroke="#b4b7ff" vector-effect="non-scaling-stroke" d="
  M 712.25 634.21
  Q 714.31 637.73 716.42 641.24
  C 735.16 672.34 778.55 666.75 792.52 634.50"
/>
<path stroke="#88cdff" vector-effect="non-scaling-stroke" d="
  M 792.52 634.50
  Q 809.70 638.15 814.50 639.49
  Q 855.62 650.98 890.59 677.83
  Q 897.98 683.51 901.04 684.72
  C 920.06 692.28 938.61 672.31 930.00 653.94
  C 927.20 647.97 921.37 643.74 915.83 639.65
  Q 862.12 599.97 796.79 588.50"
/>
<path stroke="#b4b7ff" vector-effect="non-scaling-stroke" d="
  M 796.79 588.50
  Q 796.56 582.54 797.42 565.68
  Q 798.88 536.97 800.15 508.25
  Q 800.17 507.86 800.49 507.64
  L 800.75 507.46"
/>
<path stroke="#88cdff" vector-effect="non-scaling-stroke" d="
  M 800.75 507.46
  Q 801.24 507.78 802.78 507.99
  Q 893.91 520.54 966.74 576.59
  Q 974.05 582.22 977.36 583.45
  C 996.94 590.77 1015.77 568.66 1004.80 550.48
  Q 1002.48 546.63 996.04 541.65
  Q 932.50 492.50 854.94 471.72
  C 841.48 468.11 823.76 464.75 811.75 462.50
  Q 808.41 461.87 802.54 461.50"
/>
<path stroke="#b4b7ff" vector-effect="non-scaling-stroke" d="
  M 802.54 461.50
  C 802.36 461.26 802.24 461.13 802.26 460.81
  Q 803.68 425.39 805.71 390.00"
/>
<path stroke="#abbbff" vector-effect="non-scaling-stroke" d="
  M 805.71 390.00
  L 806.29 388.25"
/>
<path stroke="#88cdff" vector-effect="non-scaling-stroke" d="
  M 806.29 388.25
  C 815.01 389.65 824.79 390.49 832.53 391.81
  Q 941.22 410.34 1030.18 475.62
  C 1036.15 480.00 1043.90 486.95 1050.59 488.80
  C 1059.76 491.35 1070.04 487.64 1075.44 479.73
  C 1083.17 468.44 1079.68 455.46 1068.83 447.40
  Q 1042.49 427.86 1022.52 415.51
  Q 943.30 366.52 851.66 349.17
  C 837.53 346.50 822.34 342.90 808.00 342.21"
/>
<path stroke="#abbbff" vector-effect="non-scaling-stroke" d="
  M 808.00 342.21
  Q 807.62 341.54 807.66 340.75
  Q 809.90 295.60 811.87 250.43
  Q 812.35 239.51 810.79 231.25"
/>
<path stroke="#ffdad0" vector-effect="non-scaling-stroke" d="
  M 409.90 576.23
  C 398.93 584.47 387.38 590.44 375.22 596.52
  Q 374.78 596.73 374.29 596.68
  L 372.54 596.50"
/>
<path stroke="#7f7ea2" vector-effect="non-scaling-stroke" d="
  M 372.54 596.50
  L 359.25 565.04"
/>
<path stroke="#47baff" vector-effect="non-scaling-stroke" d="
  M 697.07 637.79
  Q 697.68 630.94 696.46 624.19
  Q 695.47 618.73 695.37 615.71
  Q 694.97 604.64 694.68 593.56
  Q 694.67 593.09 694.48 592.66
  L 694.00 591.54"
/>
<path stroke="#7f7ea2" vector-effect="non-scaling-stroke" d="
  M 366.06 666.31
  Q 371.14 662.72 376.00 661.46
  C 379.73 660.49 387.88 660.29 391.69 657.43
  C 396.69 653.67 414.71 639.01 404.07 632.57
  C 399.35 629.71 385.62 636.35 380.75 638.46
  A 0.42 0.42 0.0 0 1 380.21 637.90
  L 383.46 631.00"
/>
<path stroke="#6694ff" vector-effect="non-scaling-stroke" d="
  M 802.54 461.50
  C 802.38 466.05 800.08 506.71 800.75 507.46"
/>
<path stroke="#6694ff" vector-effect="non-scaling-stroke" d="
  M 796.79 588.50
  C 797.07 592.45 796.32 596.02 796.33 599.94
  C 796.35 607.54 794.65 614.63 794.40 622.27
  Q 794.20 628.48 792.52 634.50"
/>
<path stroke="#6694ff" vector-effect="non-scaling-stroke" d="
  M 712.25 634.21
  C 708.79 619.58 709.18 603.50 708.46 588.50"
/>
<path stroke="#6694ff" vector-effect="non-scaling-stroke" d="
  M 704.75 507.46
  L 702.71 461.50"
/>
<path stroke="#47baff" vector-effect="non-scaling-stroke" d="
  M 690.50 509.79
  Q 690.21 509.19 690.59 508.66
  Q 690.83 508.33 690.81 507.92
  L 688.74 465.17
  Q 688.72 464.75 688.57 464.37
  L 688.25 463.54"
/>
<path stroke="#6694ff" vector-effect="non-scaling-stroke" d="
  M 699.10 384.77
  L 698.96 388.25"
/>
<path stroke="#47baff" vector-effect="non-scaling-stroke" d="
  M 684.75 390.21
  C 684.92 388.91 685.16 387.84 685.04 386.51
  Q 683.05 365.14 683.75 343.79"
/>
<path stroke="#80a3d2" vector-effect="non-scaling-stroke" d="
  M 400.93 612.95
  L 392.65 613.28
  Q 392.18 613.30 391.97 613.72
  L 383.46 631.00"
/>
<path stroke="#ffdad0" vector-effect="non-scaling-stroke" d="
  M 383.46 631.00
  C 373.57 631.23 371.66 636.87 367.07 644.26
  Q 366.80 644.69 366.33 644.87
  Q 351.96 650.47 337.58 655.91
  C 337.14 656.07 336.69 656.01 336.25 655.96"
/>
<path stroke="#47baff" vector-effect="non-scaling-stroke" d="
  M 506.25 401.79
  C 506.64 402.32 534.82 388.00 537.80 386.58
  Q 537.97 386.49 537.99 386.31
  Q 538.01 386.15 538.00 386.04"
/>
<path stroke="#5d97ff" vector-effect="non-scaling-stroke" d="
  M 808.00 342.21
  Q 807.39 342.57 807.49 343.23
  Q 807.56 343.67 807.99 343.76
  C 808.82 343.95 808.37 352.31 808.24 355.49
  C 808.19 356.85 807.63 358.02 807.51 359.44
  Q 806.27 373.82 806.29 388.25"
/>
<path stroke="#8982ff" vector-effect="non-scaling-stroke" d="
  M 805.71 390.00
  L 805.56 376.98
  Q 805.55 376.41 805.10 376.76
  Q 803.80 377.78 804.15 379.69
  Q 804.25 380.23 804.08 379.70
  Q 803.91 379.16 803.98 378.55
  Q 804.06 377.88 803.50 378.25
  Q 801.17 379.83 798.84 378.23
  Q 798.36 377.91 797.78 377.93
  Q 792.84 378.09 788.13 379.55
  C 785.19 380.46 782.90 380.16 779.96 380.34
  C 776.91 380.52 774.55 379.00 771.29 379.20
  Q 770.79 379.23 770.38 379.53
  C 769.26 380.37 768.32 381.20 766.86 381.37
  C 753.81 382.91 740.85 383.13 728.57 378.61
  C 726.65 377.90 724.19 378.07 722.28 378.92
  Q 715.53 381.92 708.11 381.69
  Q 707.59 381.68 707.15 381.41
  Q 705.31 380.31 706.23 378.05
  Q 706.50 377.36 705.84 377.04
  L 704.67 376.46
  Q 703.91 376.09 703.31 376.67
  Q 701.66 378.29 700.32 377.43
  Q 699.77 377.07 699.83 377.73
  Q 700.18 381.33 699.10 384.77"
/>
<path stroke="#5d97ff" vector-effect="non-scaling-stroke" d="
  M 699.10 384.77
  L 697.23 341.99"
/>
<path stroke="#7f7ea2" vector-effect="non-scaling-stroke" d="
  M 317.25 505.79
  C 321.81 510.52 325.06 520.33 320.69 526.45
  Q 320.38 526.89 319.87 526.72
  C 314.20 524.88 296.98 519.44 292.01 523.12
  C 289.04 525.31 288.10 534.27 287.59 537.87
  A 0.91 0.91 0.0 0 1 285.92 538.21
  C 284.38 535.68 281.92 529.71 278.91 528.82
  Q 278.40 528.67 277.95 528.95
  Q 275.41 530.49 275.48 534.01
  C 275.60 539.57 277.10 546.05 274.29 551.25"
/>
<path stroke="#80a3d2" vector-effect="non-scaling-stroke" d="
  M 372.54 596.50
  L 374.40 600.63
  Q 374.63 601.15 374.10 601.37
  L 334.21 617.73"
/>
<path stroke="#1d78d2" vector-effect="non-scaling-stroke" d="
  M 334.21 617.73
  Q 333.76 617.45 333.78 616.58
  C 333.93 609.96 331.57 601.82 329.22 594.76
  C 327.24 588.80 318.71 574.66 311.25 576.46"
/>
<path stroke="#9cafd0" vector-effect="non-scaling-stroke" d="
  M 338.07 682.79
  C 323.13 691.14 306.29 699.56 288.95 703.54
  C 276.91 706.31 270.50 706.43 263.48 696.25
  Q 249.00 675.27 242.62 650.51"
/>
<path stroke="#9dd4ff" vector-effect="non-scaling-stroke" d="
  M 334.21 617.73
  L 336.25 655.96"
/>
<path stroke="#9cafd0" vector-effect="non-scaling-stroke" d="
  M 336.25 655.96
  Q 323.12 661.13 309.78 665.71
  C 308.39 666.19 307.51 667.07 306.30 667.87
  C 304.03 669.37 300.41 670.01 297.76 670.82
  C 294.84 671.71 291.66 671.24 288.48 672.57
  A 1.32 1.32 0.0 0 1 286.84 672.03
  C 284.45 668.07 283.21 663.94 281.70 659.67
  Q 277.75 648.54 275.62 636.92"
/>
<path stroke="#1d78d2" vector-effect="non-scaling-stroke" d="
  M 275.62 636.92
  Q 271.57 619.82 265.08 603.45
  C 262.07 595.84 256.20 586.23 248.25 583.36
  Q 243.31 581.58 237.74 582.17"
/>
<path stroke="#7f7ea2" vector-effect="non-scaling-stroke" d="
  M 275.62 636.92
  L 242.62 650.51"
/>
<path stroke="#1d78d2" vector-effect="non-scaling-stroke" d="
  M 242.62 650.51
  C 240.60 651.09 237.22 653.61 235.96 650.75"
/>
<path stroke="#47baff" vector-effect="non-scaling-stroke" d="
  M 339.44 699.35
  Q 327.32 704.45 318.00 706.49
  C 291.10 712.37 263.98 710.68 237.04 706.25"
/>
<path stroke="#2a89d2" vector-effect="non-scaling-stroke" d="
  M 348.14 763.56
  Q 335.33 767.56 322.75 769.03
  Q 278.53 774.18 232.49 774.70"
/>
<path stroke="#7f7ea2" vector-effect="non-scaling-stroke" d="
  M 331.75 1068.04
  Q 319.56 1069.24 307.75 1066.29"
/>
<path stroke="#80a3d2" vector-effect="non-scaling-stroke" d="
  M 307.75 1066.29
  Q 304.32 1065.38 303.79 1061.45
  Q 301.54 1044.70 301.05 1033.25
  Q 298.92 983.55 298.51 933.81
  C 298.22 899.84 295.02 865.94 292.04 832.05
  Q 291.94 830.93 291.81 832.04
  C 283.77 902.39 276.07 972.74 267.27 1043.00
  Q 266.33 1050.58 263.89 1065.35
  Q 263.21 1069.46 259.75 1070.04"
/>
<path stroke="#7f7ea2" vector-effect="non-scaling-stroke" d="
  M 259.75 1070.04
  Q 247.79 1071.22 236.00 1068.79"
/>
<path stroke="#7f7ea2" vector-effect="non-scaling-stroke" d="
  M 260.46 1080.75
  L 235.75 1080.46"
/>
<path stroke="#ffdad0" vector-effect="non-scaling-stroke" d="
  M 307.75 1066.29
  L 307.11 1076.02"
/>
<path stroke="#80a3d2" vector-effect="non-scaling-stroke" d="
  M 307.11 1076.02
  Q 306.01 1080.84 305.81 1086.81"
/>
<path stroke="#ebf8ff" vector-effect="non-scaling-stroke" d="
  M 305.81 1086.81
  L 261.79 1088.00"
/>
<path stroke="#80a3d2" vector-effect="non-scaling-stroke" d="
  M 261.79 1088.00
  L 260.46 1080.75"
/>
<path stroke="#ffdad0" vector-effect="non-scaling-stroke" d="
  M 260.46 1080.75
  Q 261.07 1075.31 259.75 1070.04"
/>
<path stroke="#7f7ea2" vector-effect="non-scaling-stroke" d="
  M 332.46 1077.00
  L 307.11 1076.02"
/>
<path stroke="#6b9cd2" vector-effect="non-scaling-stroke" d="
  M 261.79 1088.00
  Q 263.45 1097.33 263.61 1106.76
  C 263.76 1115.32 255.78 1114.33 249.93 1113.91
  Q 239.75 1113.19 229.34 1112.64
  Q 228.17 1112.58 228.44 1111.44
  L 233.71 1089.25"
/>
<path stroke="#6b9cd2" vector-effect="non-scaling-stroke" d="
  M 343.00 1089.29
  Q 356.03 1102.79 372.96 1110.85
  C 374.69 1111.68 375.68 1113.62 373.42 1114.96
  A 2.16 2.09 25.7 0 1 372.55 1115.25
  Q 360.29 1116.40 348.17 1116.01
  Q 326.49 1115.30 304.66 1113.87
  Q 304.14 1113.83 304.17 1113.32
  L 305.81 1086.81"
/>
<path stroke="#ebf8ff" vector-effect="non-scaling-stroke" d="
  M 1156.19 438.06
  C 1162.66 441.86 1165.11 437.19 1167.17 431.74
  Q 1183.02 389.83 1186.52 378.53
  C 1190.82 364.66 1172.00 359.61 1168.13 373.92
  Q 1160.69 401.49 1153.56 429.12
  C 1152.61 432.80 1152.86 436.11 1156.19 438.06"
/>
<path stroke="#aae5ff" vector-effect="non-scaling-stroke" d="
  M 299.99 450.61
  C 298.90 454.87 304.24 457.49 307.12 455.29
  Q 308.40 454.31 309.57 451.13
  Q 316.19 433.18 322.68 415.18
  C 324.38 410.48 322.54 405.66 317.30 405.37
  C 312.59 405.11 311.04 408.55 309.88 412.89
  Q 304.83 431.72 299.99 450.61"
/>
<path stroke="#aae5ff" vector-effect="non-scaling-stroke" d="
  M 233.30 471.94
  C 235.38 476.70 241.04 474.47 242.24 470.40
  Q 242.38 469.92 242.23 469.44
  Q 236.00 449.77 229.34 430.23
  C 225.86 420.00 212.85 424.53 217.25 434.82
  Q 225.21 453.42 233.30 471.94"
/>
<path stroke="#ebf8ff" vector-effect="non-scaling-stroke" d="
  M 1161.11 454.12
  A 8.10 8.10 0.0 0 0 1153.01 446.02
  A 8.10 8.10 0.0 0 0 1144.91 454.12
  A 8.10 8.10 0.0 0 0 1153.01 462.22
  A 8.10 8.10 0.0 0 0 1161.11 454.12"
/>
<path stroke="#9dd4ff" vector-effect="non-scaling-stroke" d="
  M 306.63 466.29
  A 6.87 6.87 0.0 0 0 299.76 459.42
  A 6.87 6.87 0.0 0 0 292.89 466.29
  A 6.87 6.87 0.0 0 0 299.76 473.16
  A 6.87 6.87 0.0 0 0 306.63 466.29"
/>
<path stroke="#9dd4ff" vector-effect="non-scaling-stroke" d="
  M 249.84 484.36
  A 6.87 6.87 0.0 0 0 242.97 477.49
  A 6.87 6.87 0.0 0 0 236.10 484.36
  A 6.87 6.87 0.0 0 0 242.97 491.23
  A 6.87 6.87 0.0 0 0 249.84 484.36"
/>
<path stroke="#ebf8ff" vector-effect="non-scaling-stroke" d="
  M 795.73 932.80
  C 799.26 936.69 810.44 949.63 815.20 950.27
  Q 815.71 950.34 816.09 949.99
  L 823.61 942.98
  Q 823.96 942.65 824.41 942.83
  L 840.59 949.50
  A 1.96 1.95 -72.8 0 1 841.76 951.73
  Q 840.82 956.05 841.54 960.40
  Q 841.63 960.93 842.08 961.22
  C 846.25 963.88 864.11 962.43 867.47 962.23
  Q 867.99 962.20 868.35 961.83
  C 870.53 959.61 869.76 952.87 869.75 949.86
  A 0.95 0.95 0.0 0 1 870.43 948.95
  Q 878.79 946.47 886.24 941.99
  A 1.29 1.28 54.2 0 1 887.88 942.26
  C 890.08 944.84 894.49 951.71 898.38 948.14
  C 901.24 945.51 914.36 934.03 914.37 930.77
  C 914.37 927.90 909.33 923.97 907.37 922.03
  Q 906.60 921.26 907.10 920.29
  Q 910.79 913.06 913.35 905.49
  C 914.08 903.33 923.16 903.79 925.55 903.52
  A 0.76 0.76 0.0 0 0 926.23 902.80
  Q 926.85 890.51 926.30 878.24
  C 926.11 874.04 917.13 875.50 914.38 875.74
  Q 913.85 875.78 913.64 875.30
  L 906.65 859.15
  A 1.60 1.59 57.3 0 1 907.04 857.35
  C 909.57 855.06 916.00 850.67 912.32 846.73
  Q 905.12 839.04 897.42 831.80
  Q 894.95 829.47 892.73 831.75
  C 890.54 833.98 888.21 836.03 886.10 838.39
  Q 885.73 838.80 885.25 838.53
  Q 877.64 834.30 869.30 831.74
  A 1.21 1.21 0.0 0 1 868.45 830.51
  Q 868.77 825.22 867.66 820.06
  Q 867.53 819.45 866.93 819.29
  Q 865.18 818.83 862.24 818.82
  Q 848.73 818.78 842.70 819.10
  C 840.25 819.23 839.97 820.36 840.01 822.51
  Q 840.11 827.11 839.68 831.53
  A 1.22 1.20 84.7 0 1 838.82 832.58
  Q 830.93 834.90 823.66 838.75
  A 1.20 1.19 -38.5 0 1 822.31 838.60
  Q 819.01 835.73 815.71 832.51
  C 813.38 830.23 811.74 832.36 810.03 833.90
  Q 802.71 840.52 796.29 848.02
  C 792.90 851.98 798.92 855.77 801.48 858.36
  A 2.29 2.28 -56.9 0 1 801.99 860.80
  L 795.84 876.48
  A 1.21 1.20 10.0 0 1 794.73 877.25
  Q 790.46 877.26 786.04 877.26
  C 784.13 877.26 783.08 877.67 783.05 879.75
  C 782.93 888.66 782.99 896.29 783.66 904.08
  Q 783.71 904.64 784.22 904.87
  C 787.04 906.13 792.20 905.45 795.41 905.52
  Q 795.94 905.54 796.13 906.03
  C 798.28 911.76 800.10 916.56 803.72 921.60
  Q 803.94 921.92 803.69 922.22
  L 795.71 931.27
  A 1.15 1.14 44.4 0 0 795.73 932.80"
/>
<path stroke="#80a3d2" vector-effect="non-scaling-stroke" d="
  M 1102.21 983.00
  C 1105.86 975.34 1111.94 964.59 1107.51 957.56
  C 1104.38 952.61 1097.25 951.59 1093.18 956.39
  C 1089.82 960.35 1088.23 965.37 1086.75 970.54"
/>
<path stroke="#c9bfff" vector-effect="non-scaling-stroke" d="
  M 1086.75 970.54
  Q 1078.86 968.17 1073.79 974.50"
/>
<path stroke="#80a3d2" vector-effect="non-scaling-stroke" d="
  M 1073.79 974.50
  L 1068.40 962.90
  Q 1068.19 962.46 1068.41 962.02
  C 1072.35 954.04 1093.75 906.66 1071.70 907.07
  C 1055.55 907.37 1062.30 945.15 1064.16 954.07
  A 0.18 0.18 0.0 0 1 1063.82 954.20
  Q 1056.52 941.11 1047.01 929.54
  Q 1046.66 929.11 1046.78 928.58
  C 1049.53 916.56 1055.45 886.98 1047.19 876.80
  C 1043.79 872.62 1037.48 872.23 1033.57 875.95
  C 1025.14 883.96 1037.52 913.40 1041.76 922.95
  Q 1042.39 924.36 1041.32 923.24
  Q 1030.87 912.19 1017.46 905.00
  Q 1016.99 904.75 1016.76 904.26
  C 1012.55 895.47 994.15 857.45 979.79 867.53
  C 961.27 880.54 1012.60 907.31 1019.74 911.27
  Q 1029.01 916.42 1038.59 926.91
  Q 1039.10 927.47 1038.40 927.17
  C 1029.83 923.47 988.68 905.02 987.44 925.08
  C 986.29 943.66 1033.10 933.85 1042.47 931.67
  Q 1042.98 931.55 1043.31 931.95
  Q 1054.24 945.27 1062.28 960.51
  A 0.23 0.23 0.0 0 1 1061.98 960.83
  C 1053.67 956.99 1009.80 938.28 1008.98 958.48
  C 1008.22 977.25 1054.44 966.78 1063.56 964.52
  Q 1064.07 964.40 1064.32 964.85
  Q 1068.32 971.91 1070.79 979.50"
/>
<path stroke="#c9bfff" vector-effect="non-scaling-stroke" d="
  M 1070.79 979.50
  Q 1066.27 988.86 1065.46 999.25"
/>
<path stroke="#80a3d2" vector-effect="non-scaling-stroke" d="
  M 1065.46 999.25
  C 1056.36 995.94 1041.43 990.90 1032.08 993.57
  C 1023.40 996.05 1022.20 1008.17 1031.27 1011.22
  C 1041.23 1014.58 1054.15 1012.89 1064.50 1011.46"
/>
<path stroke="#c9bfff" vector-effect="non-scaling-stroke" d="
  M 1064.50 1011.46
  Q 1064.57 1011.47 1064.67 1011.48
  Q 1064.73 1011.49 1064.74 1011.66
  Q 1065.54 1023.63 1067.46 1035.54"
/>
<path stroke="#80a3d2" vector-effect="non-scaling-stroke" d="
  M 1067.46 1035.54
  C 1059.33 1031.99 1041.56 1025.40 1036.11 1034.40
  C 1033.61 1038.52 1034.22 1044.12 1038.58 1046.68
  C 1047.25 1051.75 1061.08 1051.83 1071.75 1051.21"
/>
<path stroke="#c9bfff" vector-effect="non-scaling-stroke" d="
  M 1071.75 1051.21
  L 1072.66 1051.25
  Q 1073.12 1051.28 1073.34 1051.68
  Q 1081.04 1065.51 1085.33 1080.66"
/>
<path stroke="#80a3d2" vector-effect="non-scaling-stroke" d="
  M 1085.33 1080.66
  C 1076.51 1075.78 1051.96 1061.60 1042.72 1068.70
  Q 1038.05 1072.29 1039.15 1077.76
  C 1040.22 1083.06 1045.88 1085.80 1050.75 1086.79"
/>
<path stroke="#ebf8ff" vector-effect="non-scaling-stroke" d="
  M 1050.75 1086.79
  Q 1050.84 1087.56 1050.53 1088.14
  Q 1050.29 1088.58 1049.78 1088.64
  C 1043.43 1089.33 1036.27 1089.18 1030.79 1089.59
  Q 1004.41 1091.60 978.27 1095.62
  Q 961.85 1098.14 950.01 1102.91
  Q 946.34 1104.39 946.91 1108.51
  Q 946.98 1108.99 947.41 1109.23
  C 959.37 1115.81 975.06 1118.46 989.23 1120.14
  Q 1015.65 1123.26 1042.21 1124.85
  Q 1042.65 1124.87 1042.72 1124.44
  Q 1042.84 1123.68 1043.75 1123.71"
/>
<path stroke="#80a3d2" vector-effect="non-scaling-stroke" d="
  M 1043.75 1123.71
  Q 1045.23 1124.89 1046.06 1124.94
  Q 1075.76 1126.54 1105.50 1126.46"
/>
<path stroke="#c0c2ff" vector-effect="non-scaling-stroke" d="
  M 1105.50 1126.46
  L 1132.49 1126.19"
/>
<path stroke="#ebf8ff" vector-effect="non-scaling-stroke" d="
  M 1132.49 1126.19
  C 1147.54 1126.15 1272.58 1122.94 1273.28 1106.46
  Q 1273.30 1105.94 1272.96 1105.54
  C 1266.41 1097.91 1243.94 1095.68 1233.01 1094.19
  Q 1212.25 1091.34 1191.31 1090.18
  Q 1189.59 1090.09 1184.65 1089.49
  Q 1184.17 1089.44 1184.01 1088.98
  Q 1183.91 1088.68 1184.00 1088.29"
/>
<path stroke="#c0c2ff" vector-effect="non-scaling-stroke" d="
  M 1184.00 1088.29
  C 1207.83 1074.81 1275.83 1038.05 1270.72 1009.05
  Q 1268.38 995.73 1251.95 997.79
  C 1235.02 999.91 1222.10 1003.50 1209.17 997.58"
/>
<path stroke="#c9bfff" vector-effect="non-scaling-stroke" d="
  M 1209.17 997.58
  C 1203.62 993.38 1198.36 985.66 1199.41 978.68
  C 1201.51 964.81 1233.77 962.33 1243.20 952.70
  C 1251.96 943.74 1245.71 929.26 1233.67 927.31
  Q 1226.05 926.08 1218.31 926.00
  C 1208.94 925.89 1199.52 924.17 1200.68 912.07
  C 1201.99 898.40 1209.88 885.82 1217.25 872.78
  C 1221.43 865.38 1226.02 854.71 1218.76 848.74
  C 1193.36 827.82 1169.69 889.02 1163.96 903.71
  C 1162.69 906.98 1159.86 913.34 1156.28 914.36
  Q 1155.80 914.50 1155.32 914.34
  Q 1152.01 913.21 1149.97 910.25
  C 1144.39 902.15 1134.04 885.18 1121.96 887.86
  C 1109.84 890.56 1109.27 904.25 1111.46 913.51
  Q 1115.29 929.76 1119.09 946.02
  C 1121.75 957.41 1124.57 974.98 1116.38 984.94
  C 1111.69 990.65 1106.51 985.62 1102.21 983.00"
/>
<path stroke="#8982ff" vector-effect="non-scaling-stroke" d="
  M 1209.17 997.58
  L 1216.18 1001.99
  Q 1217.49 1002.80 1215.96 1002.66
  Q 1211.85 1002.28 1210.90 1006.19
  Q 1210.75 1006.78 1210.32 1007.22
  L 1201.43 1016.32
  Q 1201.07 1016.68 1201.04 1017.20
  C 1200.94 1019.02 1202.15 1022.28 1201.11 1023.81
  Q 1200.83 1024.23 1201.27 1024.47
  L 1202.76 1025.30
  A 0.28 0.28 0.0 0 1 1202.64 1025.83
  C 1183.58 1027.13 1165.16 1028.67 1146.66 1029.07
  Q 1146.17 1029.08 1145.79 1029.40
  C 1143.04 1031.70 1140.36 1044.98 1139.12 1050.74"
/>
<path stroke="#4963d1" vector-effect="non-scaling-stroke" d="
  M 1139.12 1050.74
  C 1127.29 1033.65 1102.41 1074.79 1098.38 1081.59
  Q 1098.02 1082.20 1097.94 1081.50
  L 1094.18 1049.56
  Q 1094.12 1049.07 1094.48 1048.72
  C 1101.36 1042.21 1137.93 1008.98 1119.54 999.22
  C 1103.69 990.80 1094.82 1032.83 1093.36 1041.48
  A 0.35 0.34 44.9 0 1 1092.68 1041.48
  Q 1089.65 1024.34 1085.10 1007.54
  Q 1084.96 1007.03 1085.29 1006.61
  Q 1094.32 995.17 1102.21 983.00"
/>
<path stroke="#4963d1" vector-effect="non-scaling-stroke" d="
  M 1073.79 974.50
  Q 1078.54 986.23 1082.35 998.29
  Q 1082.64 999.22 1082.73 998.25
  Q 1084.03 984.29 1086.75 970.54"
/>
<path stroke="#4066d2" vector-effect="non-scaling-stroke" d="
  M 1139.12 1050.74
  C 1148.81 1065.83 1109.49 1082.87 1098.87 1087.14
  Q 1098.41 1087.33 1098.43 1087.83
  L 1099.95 1124.51
  A 0.46 0.45 58.6 0 0 1100.80 1124.72
  C 1105.60 1116.19 1126.76 1081.26 1139.51 1088.87
  C 1145.89 1092.68 1145.32 1100.22 1140.47 1105.28
  C 1131.59 1114.58 1119.90 1120.61 1108.54 1125.77
  Q 1107.83 1126.09 1105.50 1126.46"
/>
<path stroke="#6b9cd2" vector-effect="non-scaling-stroke" d="
  M 1043.75 1123.71
  Q 1038.66 1118.65 1042.30 1112.26
  C 1049.80 1099.12 1082.15 1118.33 1090.72 1123.88"
/>
<path stroke="#4066d2" vector-effect="non-scaling-stroke" d="
  M 1090.72 1123.88
  L 1094.27 1125.99
  A 0.85 0.85 0.0 0 0 1095.55 1125.23
  L 1094.15 1089.59
  Q 1094.13 1088.99 1093.54 1088.88
  Q 1090.86 1088.37 1088.25 1089.04"
/>
<path stroke="#6b9cd2" vector-effect="non-scaling-stroke" d="
  M 1088.25 1089.04
  C 1075.57 1089.14 1063.70 1089.93 1050.75 1086.79"
/>
<path stroke="#4963d1" vector-effect="non-scaling-stroke" d="
  M 1085.33 1080.66
  L 1093.21 1085.61
  Q 1093.99 1086.10 1093.89 1085.18
  L 1089.86 1050.31
  Q 1089.76 1049.43 1088.87 1049.52
  L 1071.75 1051.21"
/>
<path stroke="#4963d1" vector-effect="non-scaling-stroke" d="
  M 1067.46 1035.54
  Q 1077.84 1040.08 1088.13 1046.04
  A 0.55 0.54 -80.1 0 0 1088.93 1045.47
  Q 1085.71 1026.91 1080.86 1008.71
  Q 1080.73 1008.24 1080.25 1008.33
  L 1064.50 1011.46"
/>
<path stroke="#4963d1" vector-effect="non-scaling-stroke" d="
  M 1065.46 999.25
  L 1079.16 1004.83
  Q 1079.69 1005.04 1079.54 1004.49
  Q 1076.05 991.68 1070.79 979.50"
/>
<path stroke="#abbbff" vector-effect="non-scaling-stroke" d="
  M 1184.00 1088.29
  C 1166.76 1097.03 1145.10 1110.62 1132.49 1126.19"
/>
<path stroke="#abbbff" vector-effect="non-scaling-stroke" d="
  M 1088.25 1089.04
  Q 1091.84 1106.21 1090.72 1123.88"
/>
<path stroke="#80a3d2" vector-effect="non-scaling-stroke" d="
  M 541.0397 1254.0953
  A 22.02 20.81 0.3 0 0 519.1290 1233.1703
  A 22.02 20.81 0.3 0 0 497.0003 1253.8647
  A 22.02 20.81 0.3 0 0 518.9110 1274.7897
  A 22.02 20.81 0.3 0 0 541.0397 1254.0953"
/>
<path stroke="#80a3d2" vector-effect="non-scaling-stroke" d="
  M 568.36 1246.35
  C 559.67 1269.49 588.69 1283.53 604.70 1268.21
  Q 605.21 1267.73 604.70 1267.25
  L 599.50 1262.35
  Q 599.10 1261.97 598.72 1262.38
  Q 593.85 1267.67 587.09 1266.67
  C 571.81 1264.39 573.29 1240.92 589.29 1241.22
  Q 594.71 1241.32 598.85 1245.51
  Q 599.19 1245.85 599.54 1245.53
  L 604.71 1240.97
  Q 605.16 1240.56 604.75 1240.12
  C 594.50 1229.12 573.92 1231.53 568.36 1246.35"
/>
<path stroke="#80a3d2" vector-effect="non-scaling-stroke" d="
  M 654.66 1253.98
  A 22.03 20.81 0.0 0 0 632.63 1233.17
  A 22.03 20.81 0.0 0 0 610.60 1253.98
  A 22.03 20.81 0.0 0 0 632.63 1274.79
  A 22.03 20.81 0.0 0 0 654.66 1253.98"
/>
<path stroke="#80a3d2" vector-effect="non-scaling-stroke" d="
  M 812.58 1272.84
  C 820.87 1276.38 831.53 1274.79 837.87 1268.07
  Q 838.31 1267.62 837.85 1267.19
  L 832.74 1262.44
  Q 832.32 1262.05 831.91 1262.45
  C 819.88 1274.32 802.53 1259.28 811.86 1246.27
  C 816.77 1239.42 826.03 1239.85 831.96 1245.45
  Q 832.40 1245.86 832.84 1245.46
  L 837.02 1241.68
  A 2.00 2.00 0.0 0 0 836.86 1238.59
  Q 827.07 1231.39 815.98 1234.00
  C 796.57 1238.57 794.32 1265.03 812.58 1272.84"
/>
<path stroke="#80a3d2" vector-effect="non-scaling-stroke" d="
  M 947.8699 1253.8931
  A 22.02 20.83 -0.2 0 0 925.7773 1233.1401
  A 22.02 20.83 -0.2 0 0 903.8301 1254.0469
  A 22.02 20.83 -0.2 0 0 925.9227 1274.7999
  A 22.02 20.83 -0.2 0 0 947.8699 1253.8931"
/>
<path stroke="#80a3d2" vector-effect="non-scaling-stroke" d="
  M 459.67 1274.00
  A 0.34 0.34 0.0 0 0 460.01 1273.66
  L 459.98 1250.73
  A 0.34 0.34 0.0 0 1 460.58 1250.52
  L 479.72 1273.88
  A 0.34 0.34 0.0 0 0 479.98 1274.00
  L 487.16 1274.00
  A 0.34 0.34 0.0 0 0 487.50 1273.66
  L 487.50 1234.29
  A 0.34 0.34 0.0 0 0 487.16 1233.95
  L 478.65 1234.03
  A 0.34 0.34 0.0 0 0 478.31 1234.37
  L 478.22 1257.15
  A 0.34 0.34 0.0 0 1 477.62 1257.36
  L 458.68 1234.13
  A 0.34 0.34 0.0 0 0 458.42 1234.00
  L 451.30 1234.00
  A 0.34 0.34 0.0 0 0 450.96 1234.34
  L 450.81 1273.66
  A 0.34 0.34 0.0 0 0 451.15 1274.00
  L 459.67 1274.00"
/>
<path stroke="#80a3d2" vector-effect="non-scaling-stroke" d="
  M 855.17 1241.50
  A 0.33 0.33 0.0 0 1 855.50 1241.83
  L 855.50 1273.67
  A 0.33 0.33 0.0 0 0 855.83 1274.00
  L 864.42 1273.99
  A 0.33 0.33 0.0 0 0 864.75 1273.66
  L 864.75 1241.83
  A 0.33 0.33 0.0 0 1 865.08 1241.50
  L 877.17 1241.50
  A 0.33 0.33 0.0 0 0 877.50 1241.17
  L 877.50 1234.33
  A 0.33 0.33 0.0 0 0 877.17 1234.00
  L 843.08 1234.00
  A 0.33 0.33 0.0 0 0 842.75 1234.33
  L 842.75 1241.17
  A 0.33 0.33 0.0 0 0 843.08 1241.50
  L 855.17 1241.50"
/>
<path stroke="#80a3d2" vector-effect="non-scaling-stroke" d="
  M 672.95 1274.00
  A 0.30 0.30 0.0 0 0 673.25 1273.70
  L 673.25 1250.57
  A 0.30 0.30 0.0 0 1 673.78 1250.38
  L 693.02 1273.88
  A 0.30 0.30 0.0 0 0 693.25 1273.99
  L 700.45 1274.00
  A 0.30 0.30 0.0 0 0 700.75 1273.70
  L 700.75 1234.30
  A 0.30 0.30 0.0 0 0 700.45 1234.00
  L 691.97 1234.00
  A 0.30 0.30 0.0 0 0 691.67 1234.30
  L 691.48 1257.20
  A 0.30 0.30 0.0 0 1 690.94 1257.39
  L 671.94 1234.11
  A 0.30 0.30 0.0 0 0 671.71 1234.00
  L 664.55 1234.00
  A 0.30 0.30 0.0 0 0 664.25 1234.30
  L 664.25 1273.70
  A 0.30 0.30 0.0 0 0 664.55 1274.00
  L 672.95 1274.00"
/>
<path stroke="#80a3d2" vector-effect="non-scaling-stroke" d="
  M 721.95 1274.00
  A 0.30 0.30 0.0 0 0 722.25 1273.70
  L 722.25 1250.53
  A 0.30 0.30 0.0 0 1 722.78 1250.34
  L 741.98 1273.89
  A 0.30 0.30 0.0 0 0 742.21 1274.00
  L 749.45 1274.00
  A 0.30 0.30 0.0 0 0 749.75 1273.70
  L 749.75 1234.30
  A 0.30 0.30 0.0 0 0 749.45 1234.00
  L 740.83 1234.00
  A 0.30 0.30 0.0 0 0 740.53 1234.30
  L 740.59 1257.36
  A 0.30 0.30 0.0 0 1 740.06 1257.55
  L 720.90 1234.11
  A 0.30 0.30 0.0 0 0 720.67 1234.00
  L 713.55 1234.00
  A 0.30 0.30 0.0 0 0 713.25 1234.30
  L 713.25 1273.70
  A 0.30 0.30 0.0 0 0 713.55 1274.00
  L 721.95 1274.00"
/>
<path stroke="#80a3d2" vector-effect="non-scaling-stroke" d="
  M 771.25 1257.65
  A 0.40 0.40 0.0 0 1 771.65 1257.25
  L 789.35 1257.25
  A 0.40 0.40 0.0 0 0 789.75 1256.85
  L 789.75 1250.40
  A 0.40 0.40 0.0 0 0 789.35 1250.00
  L 771.65 1250.00
  A 0.40 0.40 0.0 0 1 771.25 1249.60
  L 771.25 1241.90
  A 0.40 0.40 0.0 0 1 771.65 1241.50
  L 791.85 1241.50
  A 0.40 0.40 0.0 0 0 792.25 1241.10
  L 792.25 1234.40
  A 0.40 0.40 0.0 0 0 791.85 1234.00
  L 762.46 1234.00
  A 0.40 0.40 0.0 0 0 762.06 1234.40
  L 762.01 1273.60
  A 0.40 0.40 0.0 0 0 762.41 1274.00
  L 792.60 1274.00
  A 0.40 0.40 0.0 0 0 793.00 1273.60
  L 793.00 1266.90
  A 0.40 0.40 0.0 0 0 792.60 1266.50
  L 771.65 1266.50
  A 0.40 0.40 0.0 0 1 771.25 1266.10
  L 771.25 1257.65"
/>
<path stroke="#80a3d2" vector-effect="non-scaling-stroke" d="
  M 894.25 1234.43
  A 0.43 0.43 0.0 0 0 893.82 1234.00
  L 885.44 1234.00
  A 0.43 0.43 0.0 0 0 885.01 1234.43
  L 885.01 1273.57
  A 0.43 0.43 0.0 0 0 885.44 1274.00
  L 893.82 1274.00
  A 0.43 0.43 0.0 0 0 894.25 1273.57
  L 894.25 1234.43"
/>
<path stroke="#80a3d2" vector-effect="non-scaling-stroke" d="
  M 966.75 1250.51
  A 0.31 0.31 0.0 0 1 967.30 1250.31
  L 986.59 1273.88
  A 0.31 0.31 0.0 0 0 986.83 1273.99
  L 993.94 1274.00
  A 0.31 0.31 0.0 0 0 994.25 1273.69
  L 994.25 1234.31
  A 0.31 0.31 0.0 0 0 993.94 1234.00
  L 985.56 1234.00
  A 0.31 0.31 0.0 0 0 985.25 1234.31
  L 985.25 1257.52
  A 0.31 0.31 0.0 0 1 984.70 1257.71
  L 965.54 1234.11
  A 0.31 0.31 0.0 0 0 965.30 1234.00
  L 958.06 1234.00
  A 0.31 0.31 0.0 0 0 957.75 1234.31
  L 957.75 1273.69
  A 0.31 0.31 0.0 0 0 958.06 1274.00
  L 966.44 1274.00
  A 0.31 0.31 0.0 0 0 966.75 1273.69
  L 966.75 1250.51"
/>
<path stroke="#ebf8ff" vector-effect="non-scaling-stroke" d="
  M 588.99 182.00
  Q 588.64 183.02 588.70 184.10
  L 590.20 212.62
  A 2.40 2.40 0.0 0 0 592.03 214.82
  Q 596.22 215.84 596.46 212.01
  C 596.79 206.67 599.33 183.60 596.48 180.29
  C 594.51 177.99 590.13 178.73 588.99 182.00"
/>
<path stroke="#ebf8ff" vector-effect="non-scaling-stroke" d="
  M 597.06 222.57
  A 3.69 3.69 0.0 0 0 593.37 218.88
  A 3.69 3.69 0.0 0 0 589.68 222.57
  A 3.69 3.69 0.0 0 0 593.37 226.26
  A 3.69 3.69 0.0 0 0 597.06 222.57"
/>
<path stroke="#c9bfff" vector-effect="non-scaling-stroke" d="
  M 535.44 853.06
  C 539.58 855.24 541.96 852.45 542.16 848.41
  Q 543.06 830.45 543.74 812.47
  C 544.15 801.67 531.51 803.25 531.70 811.00
  Q 531.96 821.27 533.30 847.23
  C 533.43 849.91 533.36 851.97 535.44 853.06"
/>
<path stroke="#c9bfff" vector-effect="non-scaling-stroke" d="
  M 542.82 863.97
  A 5.07 5.07 0.0 0 0 537.75 858.90
  A 5.07 5.07 0.0 0 0 532.68 863.97
  A 5.07 5.07 0.0 0 0 537.75 869.04
  A 5.07 5.07 0.0 0 0 542.82 863.97"
/>
<path stroke="#ebf8ff" vector-effect="non-scaling-stroke" d="
  M 880.4329 912.4769
  A 33.67 33.15 40.5 0 0 876.3592 865.4025
  A 33.67 33.15 40.5 0 0 829.2271 868.7431
  A 33.67 33.15 40.5 0 0 833.3008 915.8175
  A 33.67 33.15 40.5 0 0 880.4329 912.4769"
/>
<path stroke="#ebf8ff" vector-effect="non-scaling-stroke" d="
  M 875.89 890.52
  A 21.11 21.11 0.0 0 0 854.78 869.41
  A 21.11 21.11 0.0 0 0 833.67 890.52
  A 21.11 21.11 0.0 0 0 854.78 911.63
  A 21.11 21.11 0.0 0 0 875.89 890.52"
/>
<path stroke="#80a3d2" vector-effect="non-scaling-stroke" d="
  M 518.6276 1266.7837
  A 12.81 12.47 91.8 0 0 531.4938 1254.3717
  A 12.81 12.47 91.8 0 0 519.4324 1241.1763
  A 12.81 12.47 91.8 0 0 506.5662 1253.5883
  A 12.81 12.47 91.8 0 0 518.6276 1266.7837"
/>
<path stroke="#80a3d2" vector-effect="non-scaling-stroke" d="
  M 632.4856 1266.8093
  A 12.83 12.47 90.6 0 0 645.0893 1254.1106
  A 12.83 12.47 90.6 0 0 632.7544 1241.1507
  A 12.83 12.47 90.6 0 0 620.1507 1253.8494
  A 12.83 12.47 90.6 0 0 632.4856 1266.8093"
/>
<path stroke="#80a3d2" vector-effect="non-scaling-stroke" d="
  M 925.5939 1266.7976
  A 12.82 12.50 91.1 0 0 938.3377 1254.2200
  A 12.82 12.50 91.1 0 0 926.0861 1241.1624
  A 12.82 12.50 91.1 0 0 913.3423 1253.7400
  A 12.82 12.50 91.1 0 0 925.5939 1266.7976"
/>
</g>
<path fill="rgba(0,0,0,0)" d="
  M 0.00 0.00
  L 1448.00 0.00
  L 1448.00 1448.00
  L 0.00 1448.00
  L 0.00 0.00
  Z
  M 544.27 235.28
  A 1.65 1.65 0.0 0 0 545.70 237.75
  L 641.12 237.75
  A 1.65 1.65 0.0 0 0 642.55 235.28
  L 594.84 152.71
  A 1.65 1.65 0.0 0 0 591.98 152.71
  L 544.27 235.28
  Z
  M 810.79 231.25
  C 802.53 195.82 765.95 175.24 731.44 188.35
  C 711.90 195.77 697.31 213.24 693.90 233.79
  Q 692.85 240.10 693.41 253.73
  Q 694.25 274.37 695.18 295.02
  Q 692.84 294.29 691.94 294.46
  C 644.01 303.70 595.31 307.95 547.32 298.91
  C 536.94 296.96 520.88 292.38 509.80 290.87
  C 457.79 283.80 399.94 308.67 379.53 359.32
  Q 369.76 383.58 374.66 410.63
  Q 379.23 435.85 387.65 460.08
  C 395.80 483.55 405.29 506.95 411.93 530.87
  C 413.22 535.50 411.87 543.34 414.54 546.67
  Q 414.85 547.05 414.81 547.54
  Q 414.76 548.10 414.50 548.54
  Q 408.70 543.18 402.20 540.77
  Q 380.14 532.63 344.88 520.69
  C 340.33 519.15 334.93 517.03 331.30 513.84
  C 327.56 510.56 322.81 504.59 317.25 505.79
  C 307.43 500.47 296.10 499.72 285.24 501.60
  Q 269.49 504.33 267.35 520.21
  C 266.06 529.79 269.10 543.08 274.29 551.25
  Q 275.81 559.57 273.04 567.74
  Q 272.83 568.35 273.40 568.65
  Q 282.94 573.65 292.85 578.35
  C 294.73 579.24 295.27 578.83 296.29 577.30
  Q 298.81 573.53 301.14 569.66
  C 302.04 568.18 300.45 564.96 300.15 563.25
  Q 300.06 562.75 300.55 562.61
  C 312.02 559.31 315.55 540.86 316.41 530.24
  Q 316.44 529.83 316.86 529.80
  L 324.77 529.31
  Q 325.31 529.28 325.79 529.52
  C 328.78 531.00 331.68 533.18 334.48 534.42
  C 350.19 541.44 366.58 547.91 381.40 556.70
  A 0.56 0.56 0.0 0 1 381.29 557.71
  C 373.96 560.24 366.14 561.74 359.25 565.04
  Q 358.84 563.62 357.83 562.71
  Q 357.42 562.33 356.88 562.49
  Q 334.67 568.86 312.53 575.21
  C 311.78 575.42 311.52 575.78 311.25 576.46
  L 304.66 588.22
  Q 304.32 588.83 303.81 588.34
  L 295.75 580.40
  A 0.64 0.64 0.0 0 0 294.71 580.62
  L 290.74 590.87
  A 0.71 0.70 26.9 0 1 289.70 591.21
  L 264.76 575.13
  Q 264.31 574.84 263.77 574.89
  C 256.95 575.51 242.83 577.49 237.74 582.17
  Q 227.72 586.71 226.56 599.28
  C 225.07 615.43 229.55 632.00 235.17 647.18
  C 235.57 648.26 235.71 649.60 235.96 650.75
  Q 235.64 652.77 235.94 657.06
  Q 237.44 678.53 237.04 706.25
  C 235.78 728.22 231.74 750.17 231.13 771.94
  Q 231.07 774.33 232.49 774.70
  Q 230.15 801.10 230.27 821.00
  Q 230.67 885.95 232.57 1067.69
  Q 232.57 1068.29 233.17 1068.38
  L 236.00 1068.79
  L 235.75 1080.46
  L 233.71 1089.25
  C 212.08 1089.24 189.63 1092.10 168.25 1095.23
  C 159.76 1096.48 141.25 1098.99 135.50 1105.63
  A 1.97 1.97 0.0 0 0 135.75 1108.46
  C 144.05 1115.12 158.00 1117.23 168.26 1118.67
  C 221.50 1126.18 274.61 1126.90 328.25 1126.14
  C 349.01 1125.84 454.00 1122.78 461.54 1107.43
  Q 461.78 1106.95 461.54 1106.47
  C 457.86 1099.22 435.94 1096.22 428.42 1095.18
  Q 388.81 1089.69 348.79 1088.34
  C 346.74 1088.27 344.85 1086.82 343.00 1089.29
  Q 337.62 1084.15 333.64 1077.88
  C 333.27 1077.30 333.03 1077.30 332.46 1077.00
  Q 333.57 1072.36 331.75 1068.04
  L 336.58 1067.39
  Q 337.16 1067.31 337.25 1066.74
  Q 338.91 1056.71 339.66 1048.43
  Q 347.84 957.02 350.62 862.94
  C 351.58 830.16 352.53 796.13 348.14 763.56
  C 348.45 761.85 348.73 759.95 348.22 758.16
  C 342.29 737.37 341.38 719.51 339.44 699.35
  L 338.07 682.79
  L 366.06 666.31
  L 365.36 669.48
  Q 365.21 670.13 365.87 670.15
  L 381.79 670.60
  C 369.99 712.26 361.37 752.03 391.68 788.86
  Q 427.04 831.81 482.08 845.90
  Q 485.94 846.89 491.32 846.24
  Q 481.09 863.73 471.06 881.28
  C 469.94 883.23 471.20 884.94 473.38 884.94
  Q 536.72 885.06 600.07 884.97
  C 600.93 884.97 601.88 884.64 602.95 884.76
  Q 603.47 884.82 603.86 884.47
  Q 605.49 883.01 604.31 880.97
  Q 594.25 863.66 584.06 845.85
  Q 615.57 834.98 638.19 819.44
  Q 665.72 800.53 693.64 782.11
  Q 703.93 807.31 727.37 817.62
  C 762.53 833.09 803.21 813.31 813.22 776.50
  Q 817.86 759.44 812.76 742.01
  Q 848.01 739.66 883.19 742.78
  C 909.62 745.13 935.96 748.21 962.43 750.20
  Q 971.58 750.90 987.74 753.02
  C 1051.02 761.33 1148.92 752.27 1184.86 689.55
  C 1195.28 671.37 1202.33 645.83 1197.05 624.73
  C 1187.85 587.96 1160.66 560.36 1143.77 525.45
  C 1121.31 479.00 1110.58 429.44 1109.66 377.94
  C 1109.07 345.39 1109.46 312.87 1105.52 280.50
  C 1100.34 237.87 1070.24 198.37 1026.56 187.93
  C 983.21 177.58 939.47 184.97 896.19 195.19
  C 865.99 202.32 840.08 214.77 813.25 230.62
  C 812.50 231.06 811.62 231.17 810.79 231.25
  Z
  M 1156.19 438.06
  C 1162.66 441.86 1165.11 437.19 1167.17 431.74
  Q 1183.02 389.83 1186.52 378.53
  C 1190.82 364.66 1172.00 359.61 1168.13 373.92
  Q 1160.69 401.49 1153.56 429.12
  C 1152.61 432.80 1152.86 436.11 1156.19 438.06
  Z
  M 299.99 450.61
  C 298.90 454.87 304.24 457.49 307.12 455.29
  Q 308.40 454.31 309.57 451.13
  Q 316.19 433.18 322.68 415.18
  C 324.38 410.48 322.54 405.66 317.30 405.37
  C 312.59 405.11 311.04 408.55 309.88 412.89
  Q 304.83 431.72 299.99 450.61
  Z
  M 233.30 471.94
  C 235.38 476.70 241.04 474.47 242.24 470.40
  Q 242.38 469.92 242.23 469.44
  Q 236.00 449.77 229.34 430.23
  C 225.86 420.00 212.85 424.53 217.25 434.82
  Q 225.21 453.42 233.30 471.94
  Z
  M 1161.11 454.12
  A 8.10 8.10 0.0 0 0 1153.01 446.02
  A 8.10 8.10 0.0 0 0 1144.91 454.12
  A 8.10 8.10 0.0 0 0 1153.01 462.22
  A 8.10 8.10 0.0 0 0 1161.11 454.12
  Z
  M 306.63 466.29
  A 6.87 6.87 0.0 0 0 299.76 459.42
  A 6.87 6.87 0.0 0 0 292.89 466.29
  A 6.87 6.87 0.0 0 0 299.76 473.16
  A 6.87 6.87 0.0 0 0 306.63 466.29
  Z
  M 249.84 484.36
  A 6.87 6.87 0.0 0 0 242.97 477.49
  A 6.87 6.87 0.0 0 0 236.10 484.36
  A 6.87 6.87 0.0 0 0 242.97 491.23
  A 6.87 6.87 0.0 0 0 249.84 484.36
  Z
  M 795.73 932.80
  C 799.26 936.69 810.44 949.63 815.20 950.27
  Q 815.71 950.34 816.09 949.99
  L 823.61 942.98
  Q 823.96 942.65 824.41 942.83
  L 840.59 949.50
  A 1.96 1.95 -72.8 0 1 841.76 951.73
  Q 840.82 956.05 841.54 960.40
  Q 841.63 960.93 842.08 961.22
  C 846.25 963.88 864.11 962.43 867.47 962.23
  Q 867.99 962.20 868.35 961.83
  C 870.53 959.61 869.76 952.87 869.75 949.86
  A 0.95 0.95 0.0 0 1 870.43 948.95
  Q 878.79 946.47 886.24 941.99
  A 1.29 1.28 54.2 0 1 887.88 942.26
  C 890.08 944.84 894.49 951.71 898.38 948.14
  C 901.24 945.51 914.36 934.03 914.37 930.77
  C 914.37 927.90 909.33 923.97 907.37 922.03
  Q 906.60 921.26 907.10 920.29
  Q 910.79 913.06 913.35 905.49
  C 914.08 903.33 923.16 903.79 925.55 903.52
  A 0.76 0.76 0.0 0 0 926.23 902.80
  Q 926.85 890.51 926.30 878.24
  C 926.11 874.04 917.13 875.50 914.38 875.74
  Q 913.85 875.78 913.64 875.30
  L 906.65 859.15
  A 1.60 1.59 57.3 0 1 907.04 857.35
  C 909.57 855.06 916.00 850.67 912.32 846.73
  Q 905.12 839.04 897.42 831.80
  Q 894.95 829.47 892.73 831.75
  C 890.54 833.98 888.21 836.03 886.10 838.39
  Q 885.73 838.80 885.25 838.53
  Q 877.64 834.30 869.30 831.74
  A 1.21 1.21 0.0 0 1 868.45 830.51
  Q 868.77 825.22 867.66 820.06
  Q 867.53 819.45 866.93 819.29
  Q 865.18 818.83 862.24 818.82
  Q 848.73 818.78 842.70 819.10
  C 840.25 819.23 839.97 820.36 840.01 822.51
  Q 840.11 827.11 839.68 831.53
  A 1.22 1.20 84.7 0 1 838.82 832.58
  Q 830.93 834.90 823.66 838.75
  A 1.20 1.19 -38.5 0 1 822.31 838.60
  Q 819.01 835.73 815.71 832.51
  C 813.38 830.23 811.74 832.36 810.03 833.90
  Q 802.71 840.52 796.29 848.02
  C 792.90 851.98 798.92 855.77 801.48 858.36
  A 2.29 2.28 -56.9 0 1 801.99 860.80
  L 795.84 876.48
  A 1.21 1.20 10.0 0 1 794.73 877.25
  Q 790.46 877.26 786.04 877.26
  C 784.13 877.26 783.08 877.67 783.05 879.75
  C 782.93 888.66 782.99 896.29 783.66 904.08
  Q 783.71 904.64 784.22 904.87
  C 787.04 906.13 792.20 905.45 795.41 905.52
  Q 795.94 905.54 796.13 906.03
  C 798.28 911.76 800.10 916.56 803.72 921.60
  Q 803.94 921.92 803.69 922.22
  L 795.71 931.27
  A 1.15 1.14 44.4 0 0 795.73 932.80
  Z
  M 1102.21 983.00
  C 1105.86 975.34 1111.94 964.59 1107.51 957.56
  C 1104.38 952.61 1097.25 951.59 1093.18 956.39
  C 1089.82 960.35 1088.23 965.37 1086.75 970.54
  Q 1078.86 968.17 1073.79 974.50
  L 1068.40 962.90
  Q 1068.19 962.46 1068.41 962.02
  C 1072.35 954.04 1093.75 906.66 1071.70 907.07
  C 1055.55 907.37 1062.30 945.15 1064.16 954.07
  A 0.18 0.18 0.0 0 1 1063.82 954.20
  Q 1056.52 941.11 1047.01 929.54
  Q 1046.66 929.11 1046.78 928.58
  C 1049.53 916.56 1055.45 886.98 1047.19 876.80
  C 1043.79 872.62 1037.48 872.23 1033.57 875.95
  C 1025.14 883.96 1037.52 913.40 1041.76 922.95
  Q 1042.39 924.36 1041.32 923.24
  Q 1030.87 912.19 1017.46 905.00
  Q 1016.99 904.75 1016.76 904.26
  C 1012.55 895.47 994.15 857.45 979.79 867.53
  C 961.27 880.54 1012.60 907.31 1019.74 911.27
  Q 1029.01 916.42 1038.59 926.91
  Q 1039.10 927.47 1038.40 927.17
  C 1029.83 923.47 988.68 905.02 987.44 925.08
  C 986.29 943.66 1033.10 933.85 1042.47 931.67
  Q 1042.98 931.55 1043.31 931.95
  Q 1054.24 945.27 1062.28 960.51
  A 0.23 0.23 0.0 0 1 1061.98 960.83
  C 1053.67 956.99 1009.80 938.28 1008.98 958.48
  C 1008.22 977.25 1054.44 966.78 1063.56 964.52
  Q 1064.07 964.40 1064.32 964.85
  Q 1068.32 971.91 1070.79 979.50
  Q 1066.27 988.86 1065.46 999.25
  C 1056.36 995.94 1041.43 990.90 1032.08 993.57
  C 1023.40 996.05 1022.20 1008.17 1031.27 1011.22
  C 1041.23 1014.58 1054.15 1012.89 1064.50 1011.46
  Q 1064.57 1011.47 1064.67 1011.48
  Q 1064.73 1011.49 1064.74 1011.66
  Q 1065.54 1023.63 1067.46 1035.54
  C 1059.33 1031.99 1041.56 1025.40 1036.11 1034.40
  C 1033.61 1038.52 1034.22 1044.12 1038.58 1046.68
  C 1047.25 1051.75 1061.08 1051.83 1071.75 1051.21
  L 1072.66 1051.25
  Q 1073.12 1051.28 1073.34 1051.68
  Q 1081.04 1065.51 1085.33 1080.66
  C 1076.51 1075.78 1051.96 1061.60 1042.72 1068.70
  Q 1038.05 1072.29 1039.15 1077.76
  C 1040.22 1083.06 1045.88 1085.80 1050.75 1086.79
  Q 1050.84 1087.56 1050.53 1088.14
  Q 1050.29 1088.58 1049.78 1088.64
  C 1043.43 1089.33 1036.27 1089.18 1030.79 1089.59
  Q 1004.41 1091.60 978.27 1095.62
  Q 961.85 1098.14 950.01 1102.91
  Q 946.34 1104.39 946.91 1108.51
  Q 946.98 1108.99 947.41 1109.23
  C 959.37 1115.81 975.06 1118.46 989.23 1120.14
  Q 1015.65 1123.26 1042.21 1124.85
  Q 1042.65 1124.87 1042.72 1124.44
  Q 1042.84 1123.68 1043.75 1123.71
  Q 1045.23 1124.89 1046.06 1124.94
  Q 1075.76 1126.54 1105.50 1126.46
  L 1132.49 1126.19
  C 1147.54 1126.15 1272.58 1122.94 1273.28 1106.46
  Q 1273.30 1105.94 1272.96 1105.54
  C 1266.41 1097.91 1243.94 1095.68 1233.01 1094.19
  Q 1212.25 1091.34 1191.31 1090.18
  Q 1189.59 1090.09 1184.65 1089.49
  Q 1184.17 1089.44 1184.01 1088.98
  Q 1183.91 1088.68 1184.00 1088.29
  C 1207.83 1074.81 1275.83 1038.05 1270.72 1009.05
  Q 1268.38 995.73 1251.95 997.79
  C 1235.02 999.91 1222.10 1003.50 1209.17 997.58
  C 1203.62 993.38 1198.36 985.66 1199.41 978.68
  C 1201.51 964.81 1233.77 962.33 1243.20 952.70
  C 1251.96 943.74 1245.71 929.26 1233.67 927.31
  Q 1226.05 926.08 1218.31 926.00
  C 1208.94 925.89 1199.52 924.17 1200.68 912.07
  C 1201.99 898.40 1209.88 885.82 1217.25 872.78
  C 1221.43 865.38 1226.02 854.71 1218.76 848.74
  C 1193.36 827.82 1169.69 889.02 1163.96 903.71
  C 1162.69 906.98 1159.86 913.34 1156.28 914.36
  Q 1155.80 914.50 1155.32 914.34
  Q 1152.01 913.21 1149.97 910.25
  C 1144.39 902.15 1134.04 885.18 1121.96 887.86
  C 1109.84 890.56 1109.27 904.25 1111.46 913.51
  Q 1115.29 929.76 1119.09 946.02
  C 1121.75 957.41 1124.57 974.98 1116.38 984.94
  C 1111.69 990.65 1106.51 985.62 1102.21 983.00
  Z
  M 541.0397 1254.0953
  A 22.02 20.81 0.3 0 0 519.1290 1233.1703
  A 22.02 20.81 0.3 0 0 497.0003 1253.8647
  A 22.02 20.81 0.3 0 0 518.9110 1274.7897
  A 22.02 20.81 0.3 0 0 541.0397 1254.0953
  Z
  M 568.36 1246.35
  C 559.67 1269.49 588.69 1283.53 604.70 1268.21
  Q 605.21 1267.73 604.70 1267.25
  L 599.50 1262.35
  Q 599.10 1261.97 598.72 1262.38
  Q 593.85 1267.67 587.09 1266.67
  C 571.81 1264.39 573.29 1240.92 589.29 1241.22
  Q 594.71 1241.32 598.85 1245.51
  Q 599.19 1245.85 599.54 1245.53
  L 604.71 1240.97
  Q 605.16 1240.56 604.75 1240.12
  C 594.50 1229.12 573.92 1231.53 568.36 1246.35
  Z
  M 654.66 1253.98
  A 22.03 20.81 0.0 0 0 632.63 1233.17
  A 22.03 20.81 0.0 0 0 610.60 1253.98
  A 22.03 20.81 0.0 0 0 632.63 1274.79
  A 22.03 20.81 0.0 0 0 654.66 1253.98
  Z
  M 812.58 1272.84
  C 820.87 1276.38 831.53 1274.79 837.87 1268.07
  Q 838.31 1267.62 837.85 1267.19
  L 832.74 1262.44
  Q 832.32 1262.05 831.91 1262.45
  C 819.88 1274.32 802.53 1259.28 811.86 1246.27
  C 816.77 1239.42 826.03 1239.85 831.96 1245.45
  Q 832.40 1245.86 832.84 1245.46
  L 837.02 1241.68
  A 2.00 2.00 0.0 0 0 836.86 1238.59
  Q 827.07 1231.39 815.98 1234.00
  C 796.57 1238.57 794.32 1265.03 812.58 1272.84
  Z
  M 947.8699 1253.8931
  A 22.02 20.83 -0.2 0 0 925.7773 1233.1401
  A 22.02 20.83 -0.2 0 0 903.8301 1254.0469
  A 22.02 20.83 -0.2 0 0 925.9227 1274.7999
  A 22.02 20.83 -0.2 0 0 947.8699 1253.8931
  Z
  M 459.67 1274.00
  A 0.34 0.34 0.0 0 0 460.01 1273.66
  L 459.98 1250.73
  A 0.34 0.34 0.0 0 1 460.58 1250.52
  L 479.72 1273.88
  A 0.34 0.34 0.0 0 0 479.98 1274.00
  L 487.16 1274.00
  A 0.34 0.34 0.0 0 0 487.50 1273.66
  L 487.50 1234.29
  A 0.34 0.34 0.0 0 0 487.16 1233.95
  L 478.65 1234.03
  A 0.34 0.34 0.0 0 0 478.31 1234.37
  L 478.22 1257.15
  A 0.34 0.34 0.0 0 1 477.62 1257.36
  L 458.68 1234.13
  A 0.34 0.34 0.0 0 0 458.42 1234.00
  L 451.30 1234.00
  A 0.34 0.34 0.0 0 0 450.96 1234.34
  L 450.81 1273.66
  A 0.34 0.34 0.0 0 0 451.15 1274.00
  L 459.67 1274.00
  Z
  M 855.17 1241.50
  A 0.33 0.33 0.0 0 1 855.50 1241.83
  L 855.50 1273.67
  A 0.33 0.33 0.0 0 0 855.83 1274.00
  L 864.42 1273.99
  A 0.33 0.33 0.0 0 0 864.75 1273.66
  L 864.75 1241.83
  A 0.33 0.33 0.0 0 1 865.08 1241.50
  L 877.17 1241.50
  A 0.33 0.33 0.0 0 0 877.50 1241.17
  L 877.50 1234.33
  A 0.33 0.33 0.0 0 0 877.17 1234.00
  L 843.08 1234.00
  A 0.33 0.33 0.0 0 0 842.75 1234.33
  L 842.75 1241.17
  A 0.33 0.33 0.0 0 0 843.08 1241.50
  L 855.17 1241.50
  Z
  M 672.95 1274.00
  A 0.30 0.30 0.0 0 0 673.25 1273.70
  L 673.25 1250.57
  A 0.30 0.30 0.0 0 1 673.78 1250.38
  L 693.02 1273.88
  A 0.30 0.30 0.0 0 0 693.25 1273.99
  L 700.45 1274.00
  A 0.30 0.30 0.0 0 0 700.75 1273.70
  L 700.75 1234.30
  A 0.30 0.30 0.0 0 0 700.45 1234.00
  L 691.97 1234.00
  A 0.30 0.30 0.0 0 0 691.67 1234.30
  L 691.48 1257.20
  A 0.30 0.30 0.0 0 1 690.94 1257.39
  L 671.94 1234.11
  A 0.30 0.30 0.0 0 0 671.71 1234.00
  L 664.55 1234.00
  A 0.30 0.30 0.0 0 0 664.25 1234.30
  L 664.25 1273.70
  A 0.30 0.30 0.0 0 0 664.55 1274.00
  L 672.95 1274.00
  Z
  M 721.95 1274.00
  A 0.30 0.30 0.0 0 0 722.25 1273.70
  L 722.25 1250.53
  A 0.30 0.30 0.0 0 1 722.78 1250.34
  L 741.98 1273.89
  A 0.30 0.30 0.0 0 0 742.21 1274.00
  L 749.45 1274.00
  A 0.30 0.30 0.0 0 0 749.75 1273.70
  L 749.75 1234.30
  A 0.30 0.30 0.0 0 0 749.45 1234.00
  L 740.83 1234.00
  A 0.30 0.30 0.0 0 0 740.53 1234.30
  L 740.59 1257.36
  A 0.30 0.30 0.0 0 1 740.06 1257.55
  L 720.90 1234.11
  A 0.30 0.30 0.0 0 0 720.67 1234.00
  L 713.55 1234.00
  A 0.30 0.30 0.0 0 0 713.25 1234.30
  L 713.25 1273.70
  A 0.30 0.30 0.0 0 0 713.55 1274.00
  L 721.95 1274.00
  Z
  M 771.25 1257.65
  A 0.40 0.40 0.0 0 1 771.65 1257.25
  L 789.35 1257.25
  A 0.40 0.40 0.0 0 0 789.75 1256.85
  L 789.75 1250.40
  A 0.40 0.40 0.0 0 0 789.35 1250.00
  L 771.65 1250.00
  A 0.40 0.40 0.0 0 1 771.25 1249.60
  L 771.25 1241.90
  A 0.40 0.40 0.0 0 1 771.65 1241.50
  L 791.85 1241.50
  A 0.40 0.40 0.0 0 0 792.25 1241.10
  L 792.25 1234.40
  A 0.40 0.40 0.0 0 0 791.85 1234.00
  L 762.46 1234.00
  A 0.40 0.40 0.0 0 0 762.06 1234.40
  L 762.01 1273.60
  A 0.40 0.40 0.0 0 0 762.41 1274.00
  L 792.60 1274.00
  A 0.40 0.40 0.0 0 0 793.00 1273.60
  L 793.00 1266.90
  A 0.40 0.40 0.0 0 0 792.60 1266.50
  L 771.65 1266.50
  A 0.40 0.40 0.0 0 1 771.25 1266.10
  L 771.25 1257.65
  Z
  M 894.25 1234.43
  A 0.43 0.43 0.0 0 0 893.82 1234.00
  L 885.44 1234.00
  A 0.43 0.43 0.0 0 0 885.01 1234.43
  L 885.01 1273.57
  A 0.43 0.43 0.0 0 0 885.44 1274.00
  L 893.82 1274.00
  A 0.43 0.43 0.0 0 0 894.25 1273.57
  L 894.25 1234.43
  Z
  M 966.75 1250.51
  A 0.31 0.31 0.0 0 1 967.30 1250.31
  L 986.59 1273.88
  A 0.31 0.31 0.0 0 0 986.83 1273.99
  L 993.94 1274.00
  A 0.31 0.31 0.0 0 0 994.25 1273.69
  L 994.25 1234.31
  A 0.31 0.31 0.0 0 0 993.94 1234.00
  L 985.56 1234.00
  A 0.31 0.31 0.0 0 0 985.25 1234.31
  L 985.25 1257.52
  A 0.31 0.31 0.0 0 1 984.70 1257.71
  L 965.54 1234.11
  A 0.31 0.31 0.0 0 0 965.30 1234.00
  L 958.06 1234.00
  A 0.31 0.31 0.0 0 0 957.75 1234.31
  L 957.75 1273.69
  A 0.31 0.31 0.0 0 0 958.06 1274.00
  L 966.44 1274.00
  A 0.31 0.31 0.0 0 0 966.75 1273.69
  L 966.75 1250.51
  Z"
/>
<path fill="#d6f0ff" d="
  M 544.27 235.28
  L 591.98 152.71
  A 1.65 1.65 0.0 0 1 594.84 152.71
  L 642.55 235.28
  A 1.65 1.65 0.0 0 1 641.12 237.75
  L 545.70 237.75
  A 1.65 1.65 0.0 0 1 544.27 235.28
  Z
  M 588.99 182.00
  Q 588.64 183.02 588.70 184.10
  L 590.20 212.62
  A 2.40 2.40 0.0 0 0 592.03 214.82
  Q 596.22 215.84 596.46 212.01
  C 596.79 206.67 599.33 183.60 596.48 180.29
  C 594.51 177.99 590.13 178.73 588.99 182.00
  Z
  M 597.06 222.57
  A 3.69 3.69 0.0 0 0 593.37 218.88
  A 3.69 3.69 0.0 0 0 589.68 222.57
  A 3.69 3.69 0.0 0 0 593.37 226.26
  A 3.69 3.69 0.0 0 0 597.06 222.57
  Z"
/>
<path fill="#ffffff" d="
  M 588.99 182.00
  C 590.13 178.73 594.51 177.99 596.48 180.29
  C 599.33 183.60 596.79 206.67 596.46 212.01
  Q 596.22 215.84 592.03 214.82
  A 2.40 2.40 0.0 0 1 590.20 212.62
  L 588.70 184.10
  Q 588.64 183.02 588.99 182.00
  Z"
/>
<path fill="#d6f0ff" d="
  M 812.76 742.01
  Q 801.35 709.46 770.47 700.02
  C 743.08 691.66 713.32 703.50 698.83 727.95
  Q 684.06 752.84 693.64 782.11
  Q 665.72 800.53 638.19 819.44
  Q 615.57 834.98 584.06 845.85
  L 539.83 769.42
  A 2.99 1.98 -17.1 0 0 536.93 768.57
  C 535.00 768.97 495.71 838.70 491.32 846.24
  Q 485.94 846.89 482.08 845.90
  Q 427.04 831.81 391.68 788.86
  C 361.37 752.03 369.99 712.26 381.79 670.60
  C 383.88 670.59 396.61 671.44 397.36 669.82
  Q 410.35 641.64 423.41 613.30
  Q 423.67 612.74 423.05 612.75
  L 400.93 612.95
  Q 403.14 603.76 405.51 594.71
  Q 405.52 594.67 407.92 587.01
  Q 409.57 581.75 409.90 576.23
  C 412.68 573.54 415.74 570.84 417.24 567.34
  Q 421.47 557.54 414.50 548.54
  Q 414.76 548.10 414.81 547.54
  Q 414.85 547.05 414.54 546.67
  C 411.87 543.34 413.22 535.50 411.93 530.87
  C 405.29 506.95 395.80 483.55 387.65 460.08
  Q 379.23 435.85 374.66 410.63
  Q 369.76 383.58 379.53 359.32
  C 399.94 308.67 457.79 283.80 509.80 290.87
  C 520.88 292.38 536.94 296.96 547.32 298.91
  C 595.31 307.95 644.01 303.70 691.94 294.46
  Q 692.84 294.29 695.18 295.02
  L 697.23 341.99
  L 683.75 343.79
  C 632.39 351.66 585.08 364.17 538.00 386.04
  L 506.25 401.79
  C 481.07 415.28 458.54 430.86 435.63 447.80
  C 424.66 455.91 422.18 470.39 430.69 481.03
  C 436.33 488.09 446.34 491.58 454.91 488.91
  Q 458.66 487.75 465.79 482.35
  C 530.77 433.23 603.58 401.64 684.75 390.21
  L 698.96 388.25
  Q 699.41 389.16 699.44 389.56
  Q 701.55 425.51 702.71 461.50
  Q 695.40 461.91 688.25 463.54
  Q 669.27 467.19 662.50 468.77
  Q 580.27 487.93 513.09 538.43
  C 504.10 545.18 496.12 551.15 497.19 563.85
  C 498.45 578.87 513.58 588.67 527.73 583.47
  Q 531.42 582.11 538.08 576.98
  Q 605.81 524.84 690.50 509.79
  C 694.05 509.31 701.87 509.02 704.75 507.46
  Q 705.13 509.61 705.33 513.94
  Q 706.91 548.47 708.52 583.00
  Q 708.65 585.75 708.46 588.50
  Q 701.08 589.31 694.00 591.54
  Q 641.20 603.51 596.78 634.31
  C 585.09 642.41 570.85 650.91 573.31 666.74
  C 575.54 681.18 590.06 690.09 603.67 685.00
  Q 607.05 683.73 613.14 678.99
  Q 650.63 649.75 697.07 637.79
  L 712.25 634.21
  Q 714.31 637.73 716.42 641.24
  C 735.16 672.34 778.55 666.75 792.52 634.50
  Q 809.70 638.15 814.50 639.49
  Q 855.62 650.98 890.59 677.83
  Q 897.98 683.51 901.04 684.72
  C 920.06 692.28 938.61 672.31 930.00 653.94
  C 927.20 647.97 921.37 643.74 915.83 639.65
  Q 862.12 599.97 796.79 588.50
  Q 796.56 582.54 797.42 565.68
  Q 798.88 536.97 800.15 508.25
  Q 800.17 507.86 800.49 507.64
  L 800.75 507.46
  Q 801.24 507.78 802.78 507.99
  Q 893.91 520.54 966.74 576.59
  Q 974.05 582.22 977.36 583.45
  C 996.94 590.77 1015.77 568.66 1004.80 550.48
  Q 1002.48 546.63 996.04 541.65
  Q 932.50 492.50 854.94 471.72
  C 841.48 468.11 823.76 464.75 811.75 462.50
  Q 808.41 461.87 802.54 461.50
  C 802.36 461.26 802.24 461.13 802.26 460.81
  Q 803.68 425.39 805.71 390.00
  L 806.29 388.25
  C 815.01 389.65 824.79 390.49 832.53 391.81
  Q 941.22 410.34 1030.18 475.62
  C 1036.15 480.00 1043.90 486.95 1050.59 488.80
  C 1059.76 491.35 1070.04 487.64 1075.44 479.73
  C 1083.17 468.44 1079.68 455.46 1068.83 447.40
  Q 1042.49 427.86 1022.52 415.51
  Q 943.30 366.52 851.66 349.17
  C 837.53 346.50 822.34 342.90 808.00 342.21
  Q 807.62 341.54 807.66 340.75
  Q 809.90 295.60 811.87 250.43
  Q 812.35 239.51 810.79 231.25
  C 811.62 231.17 812.50 231.06 813.25 230.62
  C 840.08 214.77 865.99 202.32 896.19 195.19
  C 939.47 184.97 983.21 177.58 1026.56 187.93
  C 1070.24 198.37 1100.34 237.87 1105.52 280.50
  C 1109.46 312.87 1109.07 345.39 1109.66 377.94
  C 1110.58 429.44 1121.31 479.00 1143.77 525.45
  C 1160.66 560.36 1187.85 587.96 1197.05 624.73
  C 1202.33 645.83 1195.28 671.37 1184.86 689.55
  C 1148.92 752.27 1051.02 761.33 987.74 753.02
  Q 971.58 750.90 962.43 750.20
  C 935.96 748.21 909.62 745.13 883.19 742.78
  Q 848.01 739.66 812.76 742.01
  Z"
/>
<path fill="#8085ff" d="
  M 810.79 231.25
  Q 812.35 239.51 811.87 250.43
  Q 809.90 295.60 807.66 340.75
  Q 807.62 341.54 808.00 342.21
  Q 807.39 342.57 807.49 343.23
  Q 807.56 343.67 807.99 343.76
  C 808.82 343.95 808.37 352.31 808.24 355.49
  C 808.19 356.85 807.63 358.02 807.51 359.44
  Q 806.27 373.82 806.29 388.25
  L 805.71 390.00
  L 805.56 376.98
  Q 805.55 376.41 805.10 376.76
  Q 803.80 377.78 804.15 379.69
  Q 804.25 380.23 804.08 379.70
  Q 803.91 379.16 803.98 378.55
  Q 804.06 377.88 803.50 378.25
  Q 801.17 379.83 798.84 378.23
  Q 798.36 377.91 797.78 377.93
  Q 792.84 378.09 788.13 379.55
  C 785.19 380.46 782.90 380.16 779.96 380.34
  C 776.91 380.52 774.55 379.00 771.29 379.20
  Q 770.79 379.23 770.38 379.53
  C 769.26 380.37 768.32 381.20 766.86 381.37
  C 753.81 382.91 740.85 383.13 728.57 378.61
  C 726.65 377.90 724.19 378.07 722.28 378.92
  Q 715.53 381.92 708.11 381.69
  Q 707.59 381.68 707.15 381.41
  Q 705.31 380.31 706.23 378.05
  Q 706.50 377.36 705.84 377.04
  L 704.67 376.46
  Q 703.91 376.09 703.31 376.67
  Q 701.66 378.29 700.32 377.43
  Q 699.77 377.07 699.83 377.73
  Q 700.18 381.33 699.10 384.77
  L 697.23 341.99
  L 695.18 295.02
  Q 694.25 274.37 693.41 253.73
  Q 692.85 240.10 693.90 233.79
  C 697.31 213.24 711.90 195.77 731.44 188.35
  C 765.95 175.24 802.53 195.82 810.79 231.25
  Z"
/>
<circle fill="#ffffff" cx="593.37" cy="222.57" r="3.69"/>
<path fill="#3aa9ff" d="
  M 697.23 341.99
  L 699.10 384.77
  L 698.96 388.25
  L 684.75 390.21
  C 684.92 388.91 685.16 387.84 685.04 386.51
  Q 683.05 365.14 683.75 343.79
  L 697.23 341.99
  Z"
/>
<path fill="#3aa9ff" d="
  M 808.00 342.21
  C 822.34 342.90 837.53 346.50 851.66 349.17
  Q 943.30 366.52 1022.52 415.51
  Q 1042.49 427.86 1068.83 447.40
  C 1079.68 455.46 1083.17 468.44 1075.44 479.73
  C 1070.04 487.64 1059.76 491.35 1050.59 488.80
  C 1043.90 486.95 1036.15 480.00 1030.18 475.62
  Q 941.22 410.34 832.53 391.81
  C 824.79 390.49 815.01 389.65 806.29 388.25
  Q 806.27 373.82 807.51 359.44
  C 807.63 358.02 808.19 356.85 808.24 355.49
  C 808.37 352.31 808.82 343.95 807.99 343.76
  Q 807.56 343.67 807.49 343.23
  Q 807.39 342.57 808.00 342.21
  Z"
/>
<path fill="#54caff" d="
  M 683.75 343.79
  Q 683.05 365.14 685.04 386.51
  C 685.16 387.84 684.92 388.91 684.75 390.21
  C 603.58 401.64 530.77 433.23 465.79 482.35
  Q 458.66 487.75 454.91 488.91
  C 446.34 491.58 436.33 488.09 430.69 481.03
  C 422.18 470.39 424.66 455.91 435.63 447.80
  C 458.54 430.86 481.07 415.28 506.25 401.79
  C 506.64 402.32 534.82 388.00 537.80 386.58
  Q 537.97 386.49 537.99 386.31
  Q 538.01 386.15 538.00 386.04
  C 585.08 364.17 632.39 351.66 683.75 343.79
  Z"
/>
<path fill="#d6f0ff" d="
  M 1156.19 438.06
  C 1152.86 436.11 1152.61 432.80 1153.56 429.12
  Q 1160.69 401.49 1168.13 373.92
  C 1172.00 359.61 1190.82 364.66 1186.52 378.53
  Q 1183.02 389.83 1167.17 431.74
  C 1165.11 437.19 1162.66 441.86 1156.19 438.06
  Z"
/>
<path fill="#927efe" d="
  M 805.71 390.00
  Q 803.68 425.39 802.26 460.81
  C 802.24 461.13 802.36 461.26 802.54 461.50
  C 802.38 466.05 800.08 506.71 800.75 507.46
  L 800.49 507.64
  Q 800.17 507.86 800.15 508.25
  Q 798.88 536.97 797.42 565.68
  Q 796.56 582.54 796.79 588.50
  C 797.07 592.45 796.32 596.02 796.33 599.94
  C 796.35 607.54 794.65 614.63 794.40 622.27
  Q 794.20 628.48 792.52 634.50
  C 778.55 666.75 735.16 672.34 716.42 641.24
  Q 714.31 637.73 712.25 634.21
  C 708.79 619.58 709.18 603.50 708.46 588.50
  Q 708.65 585.75 708.52 583.00
  Q 706.91 548.47 705.33 513.94
  Q 705.13 509.61 704.75 507.46
  L 702.71 461.50
  Q 701.55 425.51 699.44 389.56
  Q 699.41 389.16 698.96 388.25
  L 699.10 384.77
  Q 700.18 381.33 699.83 377.73
  Q 699.77 377.07 700.32 377.43
  Q 701.66 378.29 703.31 376.67
  Q 703.91 376.09 704.67 376.46
  L 705.84 377.04
  Q 706.50 377.36 706.23 378.05
  Q 705.31 380.31 707.15 381.41
  Q 707.59 381.68 708.11 381.69
  Q 715.53 381.92 722.28 378.92
  C 724.19 378.07 726.65 377.90 728.57 378.61
  C 740.85 383.13 753.81 382.91 766.86 381.37
  C 768.32 381.20 769.26 380.37 770.38 379.53
  Q 770.79 379.23 771.29 379.20
  C 774.55 379.00 776.91 380.52 779.96 380.34
  C 782.90 380.16 785.19 380.46 788.13 379.55
  Q 792.84 378.09 797.78 377.93
  Q 798.36 377.91 798.84 378.23
  Q 801.17 379.83 803.50 378.25
  Q 804.06 377.88 803.98 378.55
  Q 803.91 379.16 804.08 379.70
  Q 804.25 380.23 804.15 379.69
  Q 803.80 377.78 805.10 376.76
  Q 805.55 376.41 805.56 376.98
  L 805.71 390.00
  Z"
/>
<path fill="#3aa9ff" d="
  M 538.00 386.04
  Q 538.01 386.15 537.99 386.31
  Q 537.97 386.49 537.80 386.58
  C 534.82 388.00 506.64 402.32 506.25 401.79
  L 538.00 386.04
  Z"
/>
<path fill="#54caff" d="
  M 307.12 455.29
  C 304.24 457.49 298.90 454.87 299.99 450.61
  Q 304.83 431.72 309.88 412.89
  C 311.04 408.55 312.59 405.11 317.30 405.37
  C 322.54 405.66 324.38 410.48 322.68 415.18
  Q 316.19 433.18 309.57 451.13
  Q 308.40 454.31 307.12 455.29
  Z"
/>
<path fill="#54caff" d="
  M 242.24 470.40
  C 241.04 474.47 235.38 476.70 233.30 471.94
  Q 225.21 453.42 217.25 434.82
  C 212.85 424.53 225.86 420.00 229.34 430.23
  Q 236.00 449.77 242.23 469.44
  Q 242.38 469.92 242.24 470.40
  Z"
/>
<circle fill="#d6f0ff" cx="1153.01" cy="454.12" r="8.10"/>
<circle fill="#3aa9ff" cx="299.76" cy="466.29" r="6.87"/>
<path fill="#3aa9ff" d="
  M 702.71 461.50
  L 704.75 507.46
  C 701.87 509.02 694.05 509.31 690.50 509.79
  Q 690.21 509.19 690.59 508.66
  Q 690.83 508.33 690.81 507.92
  L 688.74 465.17
  Q 688.72 464.75 688.57 464.37
  L 688.25 463.54
  Q 695.40 461.91 702.71 461.50
  Z"
/>
<path fill="#3aa9ff" d="
  M 802.54 461.50
  Q 808.41 461.87 811.75 462.50
  C 823.76 464.75 841.48 468.11 854.94 471.72
  Q 932.50 492.50 996.04 541.65
  Q 1002.48 546.63 1004.80 550.48
  C 1015.77 568.66 996.94 590.77 977.36 583.45
  Q 974.05 582.22 966.74 576.59
  Q 893.91 520.54 802.78 507.99
  Q 801.24 507.78 800.75 507.46
  C 800.08 506.71 802.38 466.05 802.54 461.50
  Z"
/>
<path fill="#54caff" d="
  M 688.25 463.54
  L 688.57 464.37
  Q 688.72 464.75 688.74 465.17
  L 690.81 507.92
  Q 690.83 508.33 690.59 508.66
  Q 690.21 509.19 690.50 509.79
  Q 605.81 524.84 538.08 576.98
  Q 531.42 582.11 527.73 583.47
  C 513.58 588.67 498.45 578.87 497.19 563.85
  C 496.12 551.15 504.10 545.18 513.09 538.43
  Q 580.27 487.93 662.50 468.77
  Q 669.27 467.19 688.25 463.54
  Z"
/>
<circle fill="#3aa9ff" cx="242.97" cy="484.36" r="6.87"/>
<path fill="#0047a4" d="
  M 317.25 505.79
  C 321.81 510.52 325.06 520.33 320.69 526.45
  Q 320.38 526.89 319.87 526.72
  C 314.20 524.88 296.98 519.44 292.01 523.12
  C 289.04 525.31 288.10 534.27 287.59 537.87
  A 0.91 0.91 0.0 0 1 285.92 538.21
  C 284.38 535.68 281.92 529.71 278.91 528.82
  Q 278.40 528.67 277.95 528.95
  Q 275.41 530.49 275.48 534.01
  C 275.60 539.57 277.10 546.05 274.29 551.25
  C 269.10 543.08 266.06 529.79 267.35 520.21
  Q 269.49 504.33 285.24 501.60
  C 296.10 499.72 307.43 500.47 317.25 505.79
  Z"
/>
<path fill="#feb5a0" d="
  M 414.50 548.54
  Q 421.47 557.54 417.24 567.34
  C 415.74 570.84 412.68 573.54 409.90 576.23
  C 398.93 584.47 387.38 590.44 375.22 596.52
  Q 374.78 596.73 374.29 596.68
  L 372.54 596.50
  L 359.25 565.04
  C 366.14 561.74 373.96 560.24 381.29 557.71
  A 0.56 0.56 0.0 0 0 381.40 556.70
  C 366.58 547.91 350.19 541.44 334.48 534.42
  C 331.68 533.18 328.78 531.00 325.79 529.52
  Q 325.31 529.28 324.77 529.31
  L 316.86 529.80
  Q 316.44 529.83 316.41 530.24
  C 315.55 540.86 312.02 559.31 300.55 562.61
  Q 300.06 562.75 300.15 563.25
  C 300.45 564.96 302.04 568.18 301.14 569.66
  Q 298.81 573.53 296.29 577.30
  C 295.27 578.83 294.73 579.24 292.85 578.35
  Q 282.94 573.65 273.40 568.65
  Q 272.83 568.35 273.04 567.74
  Q 275.81 559.57 274.29 551.25
  C 277.10 546.05 275.60 539.57 275.48 534.01
  Q 275.41 530.49 277.95 528.95
  Q 278.40 528.67 278.91 528.82
  C 281.92 529.71 284.38 535.68 285.92 538.21
  A 0.91 0.91 0.0 0 0 287.59 537.87
  C 288.10 534.27 289.04 525.31 292.01 523.12
  C 296.98 519.44 314.20 524.88 319.87 526.72
  Q 320.38 526.89 320.69 526.45
  C 325.06 520.33 321.81 510.52 317.25 505.79
  C 322.81 504.59 327.56 510.56 331.30 513.84
  C 334.93 517.03 340.33 519.15 344.88 520.69
  Q 380.14 532.63 402.20 540.77
  Q 408.70 543.18 414.50 548.54
  Z"
/>
<path fill="#0047a4" d="
  M 359.25 565.04
  L 372.54 596.50
  L 374.40 600.63
  Q 374.63 601.15 374.10 601.37
  L 334.21 617.73
  Q 333.76 617.45 333.78 616.58
  C 333.93 609.96 331.57 601.82 329.22 594.76
  C 327.24 588.80 318.71 574.66 311.25 576.46
  C 311.52 575.78 311.78 575.42 312.53 575.21
  Q 334.67 568.86 356.88 562.49
  Q 357.42 562.33 357.83 562.71
  Q 358.84 563.62 359.25 565.04
  Z"
/>
<path fill="#3aa9ff" d="
  M 311.25 576.46
  C 318.71 574.66 327.24 588.80 329.22 594.76
  C 331.57 601.82 333.93 609.96 333.78 616.58
  Q 333.76 617.45 334.21 617.73
  L 336.25 655.96
  Q 323.12 661.13 309.78 665.71
  C 308.39 666.19 307.51 667.07 306.30 667.87
  C 304.03 669.37 300.41 670.01 297.76 670.82
  C 294.84 671.71 291.66 671.24 288.48 672.57
  A 1.32 1.32 0.0 0 1 286.84 672.03
  C 284.45 668.07 283.21 663.94 281.70 659.67
  Q 277.75 648.54 275.62 636.92
  Q 271.57 619.82 265.08 603.45
  C 262.07 595.84 256.20 586.23 248.25 583.36
  Q 243.31 581.58 237.74 582.17
  C 242.83 577.49 256.95 575.51 263.77 574.89
  Q 264.31 574.84 264.76 575.13
  L 289.70 591.21
  A 0.71 0.70 26.9 0 0 290.74 590.87
  L 294.71 580.62
  A 0.64 0.64 0.0 0 1 295.75 580.40
  L 303.81 588.34
  Q 304.32 588.83 304.66 588.22
  L 311.25 576.46
  Z"
/>
<path fill="#ffffff" d="
  M 409.90 576.23
  Q 409.57 581.75 407.92 587.01
  Q 405.52 594.67 405.51 594.71
  Q 403.14 603.76 400.93 612.95
  L 392.65 613.28
  Q 392.18 613.30 391.97 613.72
  L 383.46 631.00
  C 373.57 631.23 371.66 636.87 367.07 644.26
  Q 366.80 644.69 366.33 644.87
  Q 351.96 650.47 337.58 655.91
  C 337.14 656.07 336.69 656.01 336.25 655.96
  L 334.21 617.73
  L 374.10 601.37
  Q 374.63 601.15 374.40 600.63
  L 372.54 596.50
  L 374.29 596.68
  Q 374.78 596.73 375.22 596.52
  C 387.38 590.44 398.93 584.47 409.90 576.23
  Z"
/>
<path fill="#0047a4" d="
  M 237.74 582.17
  Q 243.31 581.58 248.25 583.36
  C 256.20 586.23 262.07 595.84 265.08 603.45
  Q 271.57 619.82 275.62 636.92
  L 242.62 650.51
  C 240.60 651.09 237.22 653.61 235.96 650.75
  C 235.71 649.60 235.57 648.26 235.17 647.18
  C 229.55 632.00 225.07 615.43 226.56 599.28
  Q 227.72 586.71 237.74 582.17
  Z"
/>
<path fill="#3aa9ff" d="
  M 708.46 588.50
  C 709.18 603.50 708.79 619.58 712.25 634.21
  L 697.07 637.79
  Q 697.68 630.94 696.46 624.19
  Q 695.47 618.73 695.37 615.71
  Q 694.97 604.64 694.68 593.56
  Q 694.67 593.09 694.48 592.66
  L 694.00 591.54
  Q 701.08 589.31 708.46 588.50
  Z"
/>
<path fill="#3aa9ff" d="
  M 796.79 588.50
  Q 862.12 599.97 915.83 639.65
  C 921.37 643.74 927.20 647.97 930.00 653.94
  C 938.61 672.31 920.06 692.28 901.04 684.72
  Q 897.98 683.51 890.59 677.83
  Q 855.62 650.98 814.50 639.49
  Q 809.70 638.15 792.52 634.50
  Q 794.20 628.48 794.40 622.27
  C 794.65 614.63 796.35 607.54 796.33 599.94
  C 796.32 596.02 797.07 592.45 796.79 588.50
  Z"
/>
<path fill="#54caff" d="
  M 694.00 591.54
  L 694.48 592.66
  Q 694.67 593.09 694.68 593.56
  Q 694.97 604.64 695.37 615.71
  Q 695.47 618.73 696.46 624.19
  Q 697.68 630.94 697.07 637.79
  Q 650.63 649.75 613.14 678.99
  Q 607.05 683.73 603.67 685.00
  C 590.06 690.09 575.54 681.18 573.31 666.74
  C 570.85 650.91 585.09 642.41 596.78 634.31
  Q 641.20 603.51 694.00 591.54
  Z"
/>
<path fill="#0047a4" d="
  M 381.79 670.60
  L 365.87 670.15
  Q 365.21 670.13 365.36 669.48
  L 366.06 666.31
  Q 371.14 662.72 376.00 661.46
  C 379.73 660.49 387.88 660.29 391.69 657.43
  C 396.69 653.67 414.71 639.01 404.07 632.57
  C 399.35 629.71 385.62 636.35 380.75 638.46
  A 0.42 0.42 0.0 0 1 380.21 637.90
  L 383.46 631.00
  L 391.97 613.72
  Q 392.18 613.30 392.65 613.28
  L 400.93 612.95
  L 423.05 612.75
  Q 423.67 612.74 423.41 613.30
  Q 410.35 641.64 397.36 669.82
  C 396.61 671.44 383.88 670.59 381.79 670.60
  Z"
/>
<path fill="#feb5a0" d="
  M 383.46 631.00
  L 380.21 637.90
  A 0.42 0.42 0.0 0 0 380.75 638.46
  C 385.62 636.35 399.35 629.71 404.07 632.57
  C 414.71 639.01 396.69 653.67 391.69 657.43
  C 387.88 660.29 379.73 660.49 376.00 661.46
  Q 371.14 662.72 366.06 666.31
  L 338.07 682.79
  C 323.13 691.14 306.29 699.56 288.95 703.54
  C 276.91 706.31 270.50 706.43 263.48 696.25
  Q 249.00 675.27 242.62 650.51
  L 275.62 636.92
  Q 277.75 648.54 281.70 659.67
  C 283.21 663.94 284.45 668.07 286.84 672.03
  A 1.32 1.32 0.0 0 0 288.48 672.57
  C 291.66 671.24 294.84 671.71 297.76 670.82
  C 300.41 670.01 304.03 669.37 306.30 667.87
  C 307.51 667.07 308.39 666.19 309.78 665.71
  Q 323.12 661.13 336.25 655.96
  C 336.69 656.01 337.14 656.07 337.58 655.91
  Q 351.96 650.47 366.33 644.87
  Q 366.80 644.69 367.07 644.26
  C 371.66 636.87 373.57 631.23 383.46 631.00
  Z"
/>
<path fill="#3aa9ff" d="
  M 242.62 650.51
  Q 249.00 675.27 263.48 696.25
  C 270.50 706.43 276.91 706.31 288.95 703.54
  C 306.29 699.56 323.13 691.14 338.07 682.79
  L 339.44 699.35
  Q 327.32 704.45 318.00 706.49
  C 291.10 712.37 263.98 710.68 237.04 706.25
  Q 237.44 678.53 235.94 657.06
  Q 235.64 652.77 235.96 650.75
  C 237.22 653.61 240.60 651.09 242.62 650.51
  Z"
/>
<path fill="#927efe" d="
  M 812.76 742.01
  Q 817.86 759.44 813.22 776.50
  C 803.21 813.31 762.53 833.09 727.37 817.62
  Q 703.93 807.31 693.64 782.11
  Q 684.06 752.84 698.83 727.95
  C 713.32 703.50 743.08 691.66 770.47 700.02
  Q 801.35 709.46 812.76 742.01
  Z"
/>
<path fill="#54caff" d="
  M 339.44 699.35
  C 341.38 719.51 342.29 737.37 348.22 758.16
  C 348.73 759.95 348.45 761.85 348.14 763.56
  Q 335.33 767.56 322.75 769.03
  Q 278.53 774.18 232.49 774.70
  Q 231.07 774.33 231.13 771.94
  C 231.74 750.17 235.78 728.22 237.04 706.25
  C 263.98 710.68 291.10 712.37 318.00 706.49
  Q 327.32 704.45 339.44 699.35
  Z"
/>
<path fill="#0047a4" d="
  M 348.14 763.56
  C 352.53 796.13 351.58 830.16 350.62 862.94
  Q 347.84 957.02 339.66 1048.43
  Q 338.91 1056.71 337.25 1066.74
  Q 337.16 1067.31 336.58 1067.39
  L 331.75 1068.04
  Q 319.56 1069.24 307.75 1066.29
  Q 304.32 1065.38 303.79 1061.45
  Q 301.54 1044.70 301.05 1033.25
  Q 298.92 983.55 298.51 933.81
  C 298.22 899.84 295.02 865.94 292.04 832.05
  Q 291.94 830.93 291.81 832.04
  C 283.77 902.39 276.07 972.74 267.27 1043.00
  Q 266.33 1050.58 263.89 1065.35
  Q 263.21 1069.46 259.75 1070.04
  Q 247.79 1071.22 236.00 1068.79
  L 233.17 1068.38
  Q 232.57 1068.29 232.57 1067.69
  Q 230.67 885.95 230.27 821.00
  Q 230.15 801.10 232.49 774.70
  Q 278.53 774.18 322.75 769.03
  Q 335.33 767.56 348.14 763.56
  Z"
/>
<path fill="#927efe" d="
  M 584.06 845.85
  Q 594.25 863.66 604.31 880.97
  Q 605.49 883.01 603.86 884.47
  Q 603.47 884.82 602.95 884.76
  C 601.88 884.64 600.93 884.97 600.07 884.97
  Q 536.72 885.06 473.38 884.94
  C 471.20 884.94 469.94 883.23 471.06 881.28
  Q 481.09 863.73 491.32 846.24
  C 495.71 838.70 535.00 768.97 536.93 768.57
  A 2.99 1.98 -17.1 0 1 539.83 769.42
  L 584.06 845.85
  Z
  M 535.44 853.06
  C 539.58 855.24 541.96 852.45 542.16 848.41
  Q 543.06 830.45 543.74 812.47
  C 544.15 801.67 531.51 803.25 531.70 811.00
  Q 531.96 821.27 533.30 847.23
  C 533.43 849.91 533.36 851.97 535.44 853.06
  Z
  M 542.82 863.97
  A 5.07 5.07 0.0 0 0 537.75 858.90
  A 5.07 5.07 0.0 0 0 532.68 863.97
  A 5.07 5.07 0.0 0 0 537.75 869.04
  A 5.07 5.07 0.0 0 0 542.82 863.97
  Z"
/>
<path fill="#ffffff" d="
  M 535.44 853.06
  C 533.36 851.97 533.43 849.91 533.30 847.23
  Q 531.96 821.27 531.70 811.00
  C 531.51 803.25 544.15 801.67 543.74 812.47
  Q 543.06 830.45 542.16 848.41
  C 541.96 852.45 539.58 855.24 535.44 853.06
  Z"
/>
<path fill="#d6f0ff" d="
  M 815.20 950.27
  C 810.44 949.63 799.26 936.69 795.73 932.80
  A 1.15 1.14 44.4 0 1 795.71 931.27
  L 803.69 922.22
  Q 803.94 921.92 803.72 921.60
  C 800.10 916.56 798.28 911.76 796.13 906.03
  Q 795.94 905.54 795.41 905.52
  C 792.20 905.45 787.04 906.13 784.22 904.87
  Q 783.71 904.64 783.66 904.08
  C 782.99 896.29 782.93 888.66 783.05 879.75
  C 783.08 877.67 784.13 877.26 786.04 877.26
  Q 790.46 877.26 794.73 877.25
  A 1.21 1.20 10.0 0 0 795.84 876.48
  L 801.99 860.80
  A 2.29 2.28 -56.9 0 0 801.48 858.36
  C 798.92 855.77 792.90 851.98 796.29 848.02
  Q 802.71 840.52 810.03 833.90
  C 811.74 832.36 813.38 830.23 815.71 832.51
  Q 819.01 835.73 822.31 838.60
  A 1.20 1.19 -38.5 0 0 823.66 838.75
  Q 830.93 834.90 838.82 832.58
  A 1.22 1.20 84.7 0 0 839.68 831.53
  Q 840.11 827.11 840.01 822.51
  C 839.97 820.36 840.25 819.23 842.70 819.10
  Q 848.73 818.78 862.24 818.82
  Q 865.18 818.83 866.93 819.29
  Q 867.53 819.45 867.66 820.06
  Q 868.77 825.22 868.45 830.51
  A 1.21 1.21 0.0 0 0 869.30 831.74
  Q 877.64 834.30 885.25 838.53
  Q 885.73 838.80 886.10 838.39
  C 888.21 836.03 890.54 833.98 892.73 831.75
  Q 894.95 829.47 897.42 831.80
  Q 905.12 839.04 912.32 846.73
  C 916.00 850.67 909.57 855.06 907.04 857.35
  A 1.60 1.59 57.3 0 0 906.65 859.15
  L 913.64 875.30
  Q 913.85 875.78 914.38 875.74
  C 917.13 875.50 926.11 874.04 926.30 878.24
  Q 926.85 890.51 926.23 902.80
  A 0.76 0.76 0.0 0 1 925.55 903.52
  C 923.16 903.79 914.08 903.33 913.35 905.49
  Q 910.79 913.06 907.10 920.29
  Q 906.60 921.26 907.37 922.03
  C 909.33 923.97 914.37 927.90 914.37 930.77
  C 914.36 934.03 901.24 945.51 898.38 948.14
  C 894.49 951.71 890.08 944.84 887.88 942.26
  A 1.29 1.28 54.2 0 0 886.24 941.99
  Q 878.79 946.47 870.43 948.95
  A 0.95 0.95 0.0 0 0 869.75 949.86
  C 869.76 952.87 870.53 959.61 868.35 961.83
  Q 867.99 962.20 867.47 962.23
  C 864.11 962.43 846.25 963.88 842.08 961.22
  Q 841.63 960.93 841.54 960.40
  Q 840.82 956.05 841.76 951.73
  A 1.96 1.95 -72.8 0 0 840.59 949.50
  L 824.41 942.83
  Q 823.96 942.65 823.61 942.98
  L 816.09 949.99
  Q 815.71 950.34 815.20 950.27
  Z
  M 880.4329 912.4769
  A 33.67 33.15 40.5 0 0 876.3592 865.4025
  A 33.67 33.15 40.5 0 0 829.2271 868.7431
  A 33.67 33.15 40.5 0 0 833.3008 915.8175
  A 33.67 33.15 40.5 0 0 880.4329 912.4769
  Z"
/>
<path fill="#ffffff" d="
  M 307.75 1066.29
  L 307.11 1076.02
  Q 306.01 1080.84 305.81 1086.81
  L 261.79 1088.00
  L 260.46 1080.75
  Q 261.07 1075.31 259.75 1070.04
  Q 263.21 1069.46 263.89 1065.35
  Q 266.33 1050.58 267.27 1043.00
  C 276.07 972.74 283.77 902.39 291.81 832.04
  Q 291.94 830.93 292.04 832.05
  C 295.02 865.94 298.22 899.84 298.51 933.81
  Q 298.92 983.55 301.05 1033.25
  Q 301.54 1044.70 303.79 1061.45
  Q 304.32 1065.38 307.75 1066.29
  Z"
/>
<path fill="#927efe" d="
  M 1209.17 997.58
  L 1216.18 1001.99
  Q 1217.49 1002.80 1215.96 1002.66
  Q 1211.85 1002.28 1210.90 1006.19
  Q 1210.75 1006.78 1210.32 1007.22
  L 1201.43 1016.32
  Q 1201.07 1016.68 1201.04 1017.20
  C 1200.94 1019.02 1202.15 1022.28 1201.11 1023.81
  Q 1200.83 1024.23 1201.27 1024.47
  L 1202.76 1025.30
  A 0.28 0.28 0.0 0 1 1202.64 1025.83
  C 1183.58 1027.13 1165.16 1028.67 1146.66 1029.07
  Q 1146.17 1029.08 1145.79 1029.40
  C 1143.04 1031.70 1140.36 1044.98 1139.12 1050.74
  C 1127.29 1033.65 1102.41 1074.79 1098.38 1081.59
  Q 1098.02 1082.20 1097.94 1081.50
  L 1094.18 1049.56
  Q 1094.12 1049.07 1094.48 1048.72
  C 1101.36 1042.21 1137.93 1008.98 1119.54 999.22
  C 1103.69 990.80 1094.82 1032.83 1093.36 1041.48
  A 0.35 0.34 44.9 0 1 1092.68 1041.48
  Q 1089.65 1024.34 1085.10 1007.54
  Q 1084.96 1007.03 1085.29 1006.61
  Q 1094.32 995.17 1102.21 983.00
  C 1106.51 985.62 1111.69 990.65 1116.38 984.94
  C 1124.57 974.98 1121.75 957.41 1119.09 946.02
  Q 1115.29 929.76 1111.46 913.51
  C 1109.27 904.25 1109.84 890.56 1121.96 887.86
  C 1134.04 885.18 1144.39 902.15 1149.97 910.25
  Q 1152.01 913.21 1155.32 914.34
  Q 1155.80 914.50 1156.28 914.36
  C 1159.86 913.34 1162.69 906.98 1163.96 903.71
  C 1169.69 889.02 1193.36 827.82 1218.76 848.74
  C 1226.02 854.71 1221.43 865.38 1217.25 872.78
  C 1209.88 885.82 1201.99 898.40 1200.68 912.07
  C 1199.52 924.17 1208.94 925.89 1218.31 926.00
  Q 1226.05 926.08 1233.67 927.31
  C 1245.71 929.26 1251.96 943.74 1243.20 952.70
  C 1233.77 962.33 1201.51 964.81 1199.41 978.68
  C 1198.36 985.66 1203.62 993.38 1209.17 997.58
  Z"
/>
<path fill="#ffffff" d="
  M 880.4329 912.4769
  A 33.67 33.15 40.5 0 1 833.3008 915.8175
  A 33.67 33.15 40.5 0 1 829.2271 868.7431
  A 33.67 33.15 40.5 0 1 876.3592 865.4025
  A 33.67 33.15 40.5 0 1 880.4329 912.4769
  Z
  M 875.89 890.52
  A 21.11 21.11 0.0 0 0 854.78 869.41
  A 21.11 21.11 0.0 0 0 833.67 890.52
  A 21.11 21.11 0.0 0 0 854.78 911.63
  A 21.11 21.11 0.0 0 0 875.89 890.52
  Z"
/>
<circle fill="#ffffff" cx="537.75" cy="863.97" r="5.07"/>
<path fill="#0047a4" d="
  M 1073.79 974.50
  Q 1078.54 986.23 1082.35 998.29
  Q 1082.64 999.22 1082.73 998.25
  Q 1084.03 984.29 1086.75 970.54
  C 1088.23 965.37 1089.82 960.35 1093.18 956.39
  C 1097.25 951.59 1104.38 952.61 1107.51 957.56
  C 1111.94 964.59 1105.86 975.34 1102.21 983.00
  Q 1094.32 995.17 1085.29 1006.61
  Q 1084.96 1007.03 1085.10 1007.54
  Q 1089.65 1024.34 1092.68 1041.48
  A 0.35 0.34 44.9 0 0 1093.36 1041.48
  C 1094.82 1032.83 1103.69 990.80 1119.54 999.22
  C 1137.93 1008.98 1101.36 1042.21 1094.48 1048.72
  Q 1094.12 1049.07 1094.18 1049.56
  L 1097.94 1081.50
  Q 1098.02 1082.20 1098.38 1081.59
  C 1102.41 1074.79 1127.29 1033.65 1139.12 1050.74
  C 1148.81 1065.83 1109.49 1082.87 1098.87 1087.14
  Q 1098.41 1087.33 1098.43 1087.83
  L 1099.95 1124.51
  A 0.46 0.45 58.6 0 0 1100.80 1124.72
  C 1105.60 1116.19 1126.76 1081.26 1139.51 1088.87
  C 1145.89 1092.68 1145.32 1100.22 1140.47 1105.28
  C 1131.59 1114.58 1119.90 1120.61 1108.54 1125.77
  Q 1107.83 1126.09 1105.50 1126.46
  Q 1075.76 1126.54 1046.06 1124.94
  Q 1045.23 1124.89 1043.75 1123.71
  Q 1038.66 1118.65 1042.30 1112.26
  C 1049.80 1099.12 1082.15 1118.33 1090.72 1123.88
  L 1094.27 1125.99
  A 0.85 0.85 0.0 0 0 1095.55 1125.23
  L 1094.15 1089.59
  Q 1094.13 1088.99 1093.54 1088.88
  Q 1090.86 1088.37 1088.25 1089.04
  C 1075.57 1089.14 1063.70 1089.93 1050.75 1086.79
  C 1045.88 1085.80 1040.22 1083.06 1039.15 1077.76
  Q 1038.05 1072.29 1042.72 1068.70
  C 1051.96 1061.60 1076.51 1075.78 1085.33 1080.66
  L 1093.21 1085.61
  Q 1093.99 1086.10 1093.89 1085.18
  L 1089.86 1050.31
  Q 1089.76 1049.43 1088.87 1049.52
  L 1071.75 1051.21
  C 1061.08 1051.83 1047.25 1051.75 1038.58 1046.68
  C 1034.22 1044.12 1033.61 1038.52 1036.11 1034.40
  C 1041.56 1025.40 1059.33 1031.99 1067.46 1035.54
  Q 1077.84 1040.08 1088.13 1046.04
  A 0.55 0.54 -80.1 0 0 1088.93 1045.47
  Q 1085.71 1026.91 1080.86 1008.71
  Q 1080.73 1008.24 1080.25 1008.33
  L 1064.50 1011.46
  C 1054.15 1012.89 1041.23 1014.58 1031.27 1011.22
  C 1022.20 1008.17 1023.40 996.05 1032.08 993.57
  C 1041.43 990.90 1056.36 995.94 1065.46 999.25
  L 1079.16 1004.83
  Q 1079.69 1005.04 1079.54 1004.49
  Q 1076.05 991.68 1070.79 979.50
  Q 1068.32 971.91 1064.32 964.85
  Q 1064.07 964.40 1063.56 964.52
  C 1054.44 966.78 1008.22 977.25 1008.98 958.48
  C 1009.80 938.28 1053.67 956.99 1061.98 960.83
  A 0.23 0.23 0.0 0 0 1062.28 960.51
  Q 1054.24 945.27 1043.31 931.95
  Q 1042.98 931.55 1042.47 931.67
  C 1033.10 933.85 986.29 943.66 987.44 925.08
  C 988.68 905.02 1029.83 923.47 1038.40 927.17
  Q 1039.10 927.47 1038.59 926.91
  Q 1029.01 916.42 1019.74 911.27
  C 1012.60 907.31 961.27 880.54 979.79 867.53
  C 994.15 857.45 1012.55 895.47 1016.76 904.26
  Q 1016.99 904.75 1017.46 905.00
  Q 1030.87 912.19 1041.32 923.24
  Q 1042.39 924.36 1041.76 922.95
  C 1037.52 913.40 1025.14 883.96 1033.57 875.95
  C 1037.48 872.23 1043.79 872.62 1047.19 876.80
  C 1055.45 886.98 1049.53 916.56 1046.78 928.58
  Q 1046.66 929.11 1047.01 929.54
  Q 1056.52 941.11 1063.82 954.20
  A 0.18 0.18 0.0 0 0 1064.16 954.07
  C 1062.30 945.15 1055.55 907.37 1071.70 907.07
  C 1093.75 906.66 1072.35 954.04 1068.41 962.02
  Q 1068.19 962.46 1068.40 962.90
  L 1073.79 974.50
  Z"
/>
<circle fill="#d6f0ff" cx="854.78" cy="890.52" r="21.11"/>
<path fill="#927efe" d="
  M 1086.75 970.54
  Q 1084.03 984.29 1082.73 998.25
  Q 1082.64 999.22 1082.35 998.29
  Q 1078.54 986.23 1073.79 974.50
  Q 1078.86 968.17 1086.75 970.54
  Z"
/>
<path fill="#927efe" d="
  M 1070.79 979.50
  Q 1076.05 991.68 1079.54 1004.49
  Q 1079.69 1005.04 1079.16 1004.83
  L 1065.46 999.25
  Q 1066.27 988.86 1070.79 979.50
  Z"
/>
<path fill="#8085ff" d="
  M 1209.17 997.58
  C 1222.10 1003.50 1235.02 999.91 1251.95 997.79
  Q 1268.38 995.73 1270.72 1009.05
  C 1275.83 1038.05 1207.83 1074.81 1184.00 1088.29
  C 1166.76 1097.03 1145.10 1110.62 1132.49 1126.19
  L 1105.50 1126.46
  Q 1107.83 1126.09 1108.54 1125.77
  C 1119.90 1120.61 1131.59 1114.58 1140.47 1105.28
  C 1145.32 1100.22 1145.89 1092.68 1139.51 1088.87
  C 1126.76 1081.26 1105.60 1116.19 1100.80 1124.72
  A 0.46 0.45 58.6 0 1 1099.95 1124.51
  L 1098.43 1087.83
  Q 1098.41 1087.33 1098.87 1087.14
  C 1109.49 1082.87 1148.81 1065.83 1139.12 1050.74
  C 1140.36 1044.98 1143.04 1031.70 1145.79 1029.40
  Q 1146.17 1029.08 1146.66 1029.07
  C 1165.16 1028.67 1183.58 1027.13 1202.64 1025.83
  A 0.28 0.28 0.0 0 0 1202.76 1025.30
  L 1201.27 1024.47
  Q 1200.83 1024.23 1201.11 1023.81
  C 1202.15 1022.28 1200.94 1019.02 1201.04 1017.20
  Q 1201.07 1016.68 1201.43 1016.32
  L 1210.32 1007.22
  Q 1210.75 1006.78 1210.90 1006.19
  Q 1211.85 1002.28 1215.96 1002.66
  Q 1217.49 1002.80 1216.18 1001.99
  L 1209.17 997.58
  Z"
/>
<path fill="#927efe" d="
  M 1067.46 1035.54
  Q 1065.54 1023.63 1064.74 1011.66
  Q 1064.73 1011.49 1064.67 1011.48
  Q 1064.57 1011.47 1064.50 1011.46
  L 1080.25 1008.33
  Q 1080.73 1008.24 1080.86 1008.71
  Q 1085.71 1026.91 1088.93 1045.47
  A 0.55 0.54 -80.1 0 1 1088.13 1046.04
  Q 1077.84 1040.08 1067.46 1035.54
  Z"
/>
<path fill="#927efe" d="
  M 1085.33 1080.66
  Q 1081.04 1065.51 1073.34 1051.68
  Q 1073.12 1051.28 1072.66 1051.25
  L 1071.75 1051.21
  L 1088.87 1049.52
  Q 1089.76 1049.43 1089.86 1050.31
  L 1093.89 1085.18
  Q 1093.99 1086.10 1093.21 1085.61
  L 1085.33 1080.66
  Z"
/>
<path fill="#feb5a0" d="
  M 307.75 1066.29
  Q 319.56 1069.24 331.75 1068.04
  Q 333.57 1072.36 332.46 1077.00
  L 307.11 1076.02
  L 307.75 1066.29
  Z"
/>
<path fill="#feb5a0" d="
  M 236.00 1068.79
  Q 247.79 1071.22 259.75 1070.04
  Q 261.07 1075.31 260.46 1080.75
  L 235.75 1080.46
  L 236.00 1068.79
  Z"
/>
<path fill="#0047a4" d="
  M 307.11 1076.02
  L 332.46 1077.00
  C 333.03 1077.30 333.27 1077.30 333.64 1077.88
  Q 337.62 1084.15 343.00 1089.29
  Q 356.03 1102.79 372.96 1110.85
  C 374.69 1111.68 375.68 1113.62 373.42 1114.96
  A 2.16 2.09 25.7 0 1 372.55 1115.25
  Q 360.29 1116.40 348.17 1116.01
  Q 326.49 1115.30 304.66 1113.87
  Q 304.14 1113.83 304.17 1113.32
  L 305.81 1086.81
  Q 306.01 1080.84 307.11 1076.02
  Z"
/>
<path fill="#0047a4" d="
  M 235.75 1080.46
  L 260.46 1080.75
  L 261.79 1088.00
  Q 263.45 1097.33 263.61 1106.76
  C 263.76 1115.32 255.78 1114.33 249.93 1113.91
  Q 239.75 1113.19 229.34 1112.64
  Q 228.17 1112.58 228.44 1111.44
  L 233.71 1089.25
  L 235.75 1080.46
  Z"
/>
<path fill="#d6f0ff" d="
  M 305.81 1086.81
  L 304.17 1113.32
  Q 304.14 1113.83 304.66 1113.87
  Q 326.49 1115.30 348.17 1116.01
  Q 360.29 1116.40 372.55 1115.25
  A 2.16 2.09 25.7 0 0 373.42 1114.96
  C 375.68 1113.62 374.69 1111.68 372.96 1110.85
  Q 356.03 1102.79 343.00 1089.29
  C 344.85 1086.82 346.74 1088.27 348.79 1088.34
  Q 388.81 1089.69 428.42 1095.18
  C 435.94 1096.22 457.86 1099.22 461.54 1106.47
  Q 461.78 1106.95 461.54 1107.43
  C 454.00 1122.78 349.01 1125.84 328.25 1126.14
  C 274.61 1126.90 221.50 1126.18 168.26 1118.67
  C 158.00 1117.23 144.05 1115.12 135.75 1108.46
  A 1.97 1.97 0.0 0 1 135.50 1105.63
  C 141.25 1098.99 159.76 1096.48 168.25 1095.23
  C 189.63 1092.10 212.08 1089.24 233.71 1089.25
  L 228.44 1111.44
  Q 228.17 1112.58 229.34 1112.64
  Q 239.75 1113.19 249.93 1113.91
  C 255.78 1114.33 263.76 1115.32 263.61 1106.76
  Q 263.45 1097.33 261.79 1088.00
  L 305.81 1086.81
  Z"
/>
<path fill="#d6f0ff" d="
  M 1050.75 1086.79
  C 1063.70 1089.93 1075.57 1089.14 1088.25 1089.04
  Q 1091.84 1106.21 1090.72 1123.88
  C 1082.15 1118.33 1049.80 1099.12 1042.30 1112.26
  Q 1038.66 1118.65 1043.75 1123.71
  Q 1042.84 1123.68 1042.72 1124.44
  Q 1042.65 1124.87 1042.21 1124.85
  Q 1015.65 1123.26 989.23 1120.14
  C 975.06 1118.46 959.37 1115.81 947.41 1109.23
  Q 946.98 1108.99 946.91 1108.51
  Q 946.34 1104.39 950.01 1102.91
  Q 961.85 1098.14 978.27 1095.62
  Q 1004.41 1091.60 1030.79 1089.59
  C 1036.27 1089.18 1043.43 1089.33 1049.78 1088.64
  Q 1050.29 1088.58 1050.53 1088.14
  Q 1050.84 1087.56 1050.75 1086.79
  Z"
/>
<path fill="#d6f0ff" d="
  M 1184.00 1088.29
  Q 1183.91 1088.68 1184.01 1088.98
  Q 1184.17 1089.44 1184.65 1089.49
  Q 1189.59 1090.09 1191.31 1090.18
  Q 1212.25 1091.34 1233.01 1094.19
  C 1243.94 1095.68 1266.41 1097.91 1272.96 1105.54
  Q 1273.30 1105.94 1273.28 1106.46
  C 1272.58 1122.94 1147.54 1126.15 1132.49 1126.19
  C 1145.10 1110.62 1166.76 1097.03 1184.00 1088.29
  Z"
/>
<path fill="#8085ff" d="
  M 1090.72 1123.88
  Q 1091.84 1106.21 1088.25 1089.04
  Q 1090.86 1088.37 1093.54 1088.88
  Q 1094.13 1088.99 1094.15 1089.59
  L 1095.55 1125.23
  A 0.85 0.85 0.0 0 1 1094.27 1125.99
  L 1090.72 1123.88
  Z"
/>
<path fill="#0047a4" d="
  M 541.0397 1254.0953
  A 22.02 20.81 0.3 0 1 518.9110 1274.7897
  A 22.02 20.81 0.3 0 1 497.0003 1253.8647
  A 22.02 20.81 0.3 0 1 519.1290 1233.1703
  A 22.02 20.81 0.3 0 1 541.0397 1254.0953
  Z
  M 518.6276 1266.7837
  A 12.81 12.47 91.8 0 0 531.4938 1254.3717
  A 12.81 12.47 91.8 0 0 519.4324 1241.1763
  A 12.81 12.47 91.8 0 0 506.5662 1253.5883
  A 12.81 12.47 91.8 0 0 518.6276 1266.7837
  Z"
/>
<path fill="#0047a4" d="
  M 604.70 1268.21
  C 588.69 1283.53 559.67 1269.49 568.36 1246.35
  C 573.92 1231.53 594.50 1229.12 604.75 1240.12
  Q 605.16 1240.56 604.71 1240.97
  L 599.54 1245.53
  Q 599.19 1245.85 598.85 1245.51
  Q 594.71 1241.32 589.29 1241.22
  C 573.29 1240.92 571.81 1264.39 587.09 1266.67
  Q 593.85 1267.67 598.72 1262.38
  Q 599.10 1261.97 599.50 1262.35
  L 604.70 1267.25
  Q 605.21 1267.73 604.70 1268.21
  Z"
/>
<path fill="#0047a4" d="
  M 654.66 1253.98
  A 22.03 20.81 0.0 0 1 632.63 1274.79
  A 22.03 20.81 0.0 0 1 610.60 1253.98
  A 22.03 20.81 0.0 0 1 632.63 1233.17
  A 22.03 20.81 0.0 0 1 654.66 1253.98
  Z
  M 632.4856 1266.8093
  A 12.83 12.47 90.6 0 0 645.0893 1254.1106
  A 12.83 12.47 90.6 0 0 632.7544 1241.1507
  A 12.83 12.47 90.6 0 0 620.1507 1253.8494
  A 12.83 12.47 90.6 0 0 632.4856 1266.8093
  Z"
/>
<path fill="#0047a4" d="
  M 812.58 1272.84
  C 794.32 1265.03 796.57 1238.57 815.98 1234.00
  Q 827.07 1231.39 836.86 1238.59
  A 2.00 2.00 0.0 0 1 837.02 1241.68
  L 832.84 1245.46
  Q 832.40 1245.86 831.96 1245.45
  C 826.03 1239.85 816.77 1239.42 811.86 1246.27
  C 802.53 1259.28 819.88 1274.32 831.91 1262.45
  Q 832.32 1262.05 832.74 1262.44
  L 837.85 1267.19
  Q 838.31 1267.62 837.87 1268.07
  C 831.53 1274.79 820.87 1276.38 812.58 1272.84
  Z"
/>
<path fill="#0047a4" d="
  M 947.8699 1253.8931
  A 22.02 20.83 -0.2 0 1 925.9227 1274.7999
  A 22.02 20.83 -0.2 0 1 903.8301 1254.0469
  A 22.02 20.83 -0.2 0 1 925.7773 1233.1401
  A 22.02 20.83 -0.2 0 1 947.8699 1253.8931
  Z
  M 925.5939 1266.7976
  A 12.82 12.50 91.1 0 0 938.3377 1254.2200
  A 12.82 12.50 91.1 0 0 926.0861 1241.1624
  A 12.82 12.50 91.1 0 0 913.3423 1253.7400
  A 12.82 12.50 91.1 0 0 925.5939 1266.7976
  Z"
/>
<path fill="#0047a4" d="
  M 459.67 1274.00
  L 451.15 1274.00
  A 0.34 0.34 0.0 0 1 450.81 1273.66
  L 450.96 1234.34
  A 0.34 0.34 0.0 0 1 451.30 1234.00
  L 458.42 1234.00
  A 0.34 0.34 0.0 0 1 458.68 1234.13
  L 477.62 1257.36
  A 0.34 0.34 0.0 0 0 478.22 1257.15
  L 478.31 1234.37
  A 0.34 0.34 0.0 0 1 478.65 1234.03
  L 487.16 1233.95
  A 0.34 0.34 0.0 0 1 487.50 1234.29
  L 487.50 1273.66
  A 0.34 0.34 0.0 0 1 487.16 1274.00
  L 479.98 1274.00
  A 0.34 0.34 0.0 0 1 479.72 1273.88
  L 460.58 1250.52
  A 0.34 0.34 0.0 0 0 459.98 1250.73
  L 460.01 1273.66
  A 0.34 0.34 0.0 0 1 459.67 1274.00
  Z"
/>
<path fill="#0047a4" d="
  M 855.17 1241.50
  L 843.08 1241.50
  A 0.33 0.33 0.0 0 1 842.75 1241.17
  L 842.75 1234.33
  A 0.33 0.33 0.0 0 1 843.08 1234.00
  L 877.17 1234.00
  A 0.33 0.33 0.0 0 1 877.50 1234.33
  L 877.50 1241.17
  A 0.33 0.33 0.0 0 1 877.17 1241.50
  L 865.08 1241.50
  A 0.33 0.33 0.0 0 0 864.75 1241.83
  L 864.75 1273.66
  A 0.33 0.33 0.0 0 1 864.42 1273.99
  L 855.83 1274.00
  A 0.33 0.33 0.0 0 1 855.50 1273.67
  L 855.50 1241.83
  A 0.33 0.33 0.0 0 0 855.17 1241.50
  Z"
/>
<path fill="#0047a4" d="
  M 672.95 1274.00
  L 664.55 1274.00
  A 0.30 0.30 0.0 0 1 664.25 1273.70
  L 664.25 1234.30
  A 0.30 0.30 0.0 0 1 664.55 1234.00
  L 671.71 1234.00
  A 0.30 0.30 0.0 0 1 671.94 1234.11
  L 690.94 1257.39
  A 0.30 0.30 0.0 0 0 691.48 1257.20
  L 691.67 1234.30
  A 0.30 0.30 0.0 0 1 691.97 1234.00
  L 700.45 1234.00
  A 0.30 0.30 0.0 0 1 700.75 1234.30
  L 700.75 1273.70
  A 0.30 0.30 0.0 0 1 700.45 1274.00
  L 693.25 1273.99
  A 0.30 0.30 0.0 0 1 693.02 1273.88
  L 673.78 1250.38
  A 0.30 0.30 0.0 0 0 673.25 1250.57
  L 673.25 1273.70
  A 0.30 0.30 0.0 0 1 672.95 1274.00
  Z"
/>
<path fill="#0047a4" d="
  M 721.95 1274.00
  L 713.55 1274.00
  A 0.30 0.30 0.0 0 1 713.25 1273.70
  L 713.25 1234.30
  A 0.30 0.30 0.0 0 1 713.55 1234.00
  L 720.67 1234.00
  A 0.30 0.30 0.0 0 1 720.90 1234.11
  L 740.06 1257.55
  A 0.30 0.30 0.0 0 0 740.59 1257.36
  L 740.53 1234.30
  A 0.30 0.30 0.0 0 1 740.83 1234.00
  L 749.45 1234.00
  A 0.30 0.30 0.0 0 1 749.75 1234.30
  L 749.75 1273.70
  A 0.30 0.30 0.0 0 1 749.45 1274.00
  L 742.21 1274.00
  A 0.30 0.30 0.0 0 1 741.98 1273.89
  L 722.78 1250.34
  A 0.30 0.30 0.0 0 0 722.25 1250.53
  L 722.25 1273.70
  A 0.30 0.30 0.0 0 1 721.95 1274.00
  Z"
/>
<path fill="#0047a4" d="
  M 771.25 1257.65
  L 771.25 1266.10
  A 0.40 0.40 0.0 0 0 771.65 1266.50
  L 792.60 1266.50
  A 0.40 0.40 0.0 0 1 793.00 1266.90
  L 793.00 1273.60
  A 0.40 0.40 0.0 0 1 792.60 1274.00
  L 762.41 1274.00
  A 0.40 0.40 0.0 0 1 762.01 1273.60
  L 762.06 1234.40
  A 0.40 0.40 0.0 0 1 762.46 1234.00
  L 791.85 1234.00
  A 0.40 0.40 0.0 0 1 792.25 1234.40
  L 792.25 1241.10
  A 0.40 0.40 0.0 0 1 791.85 1241.50
  L 771.65 1241.50
  A 0.40 0.40 0.0 0 0 771.25 1241.90
  L 771.25 1249.60
  A 0.40 0.40 0.0 0 0 771.65 1250.00
  L 789.35 1250.00
  A 0.40 0.40 0.0 0 1 789.75 1250.40
  L 789.75 1256.85
  A 0.40 0.40 0.0 0 1 789.35 1257.25
  L 771.65 1257.25
  A 0.40 0.40 0.0 0 0 771.25 1257.65
  Z"
/>
<rect fill="#0047a4" x="885.01" y="1234.00" width="9.24" height="40.00" rx="0.43"/>
<path fill="#0047a4" d="
  M 966.75 1250.51
  L 966.75 1273.69
  A 0.31 0.31 0.0 0 1 966.44 1274.00
  L 958.06 1274.00
  A 0.31 0.31 0.0 0 1 957.75 1273.69
  L 957.75 1234.31
  A 0.31 0.31 0.0 0 1 958.06 1234.00
  L 965.30 1234.00
  A 0.31 0.31 0.0 0 1 965.54 1234.11
  L 984.70 1257.71
  A 0.31 0.31 0.0 0 0 985.25 1257.52
  L 985.25 1234.31
  A 0.31 0.31 0.0 0 1 985.56 1234.00
  L 993.94 1234.00
  A 0.31 0.31 0.0 0 1 994.25 1234.31
  L 994.25 1273.69
  A 0.31 0.31 0.0 0 1 993.94 1274.00
  L 986.83 1273.99
  A 0.31 0.31 0.0 0 1 986.59 1273.88
  L 967.30 1250.31
  A 0.31 0.31 0.0 0 0 966.75 1250.51
  Z"
/>
<ellipse fill="#ffffff" cx="0.00" cy="0.00" transform="translate(519.03,1253.98) rotate(91.8)" rx="12.81" ry="12.47"/>
<ellipse fill="#ffffff" cx="0.00" cy="0.00" transform="translate(632.62,1253.98) rotate(90.6)" rx="12.83" ry="12.47"/>
<ellipse fill="#ffffff" cx="0.00" cy="0.00" transform="translate(925.84,1253.98) rotate(91.1)" rx="12.82" ry="12.50"/>
</svg>
